<svg width="336" height="337" viewBox="0 0 336 337" fill="none" xmlns="http://www.w3.org/2000/svg">
<g clip-path="url(#clip0_682_5210)">
<path d="M335.595 0.405029H194.117V285.653H335.595V0.405029Z" fill="white"/>
<path d="M335.595 286.058H194.117C194.01 286.057 193.907 286.014 193.832 285.938C193.756 285.862 193.714 285.76 193.714 285.653V0.405143C193.714 0.352027 193.724 0.299384 193.744 0.250242C193.764 0.201099 193.794 0.15642 193.831 0.118775C193.869 0.0811306 193.913 0.0512625 193.962 0.03088C194.011 0.0104974 194.064 3.67065e-06 194.117 4.2244e-06H335.595C335.648 -0.000239585 335.701 0.0100724 335.75 0.0303461C335.8 0.0506197 335.844 0.0804543 335.882 0.118123C335.92 0.155792 335.949 0.200551 335.97 0.249815C335.99 0.299078 336 0.351871 336 0.405143V285.658C335.999 285.765 335.955 285.866 335.879 285.941C335.804 286.016 335.702 286.058 335.595 286.058ZM194.522 285.253H335.192V0.808438H194.522V285.253Z" fill="#9CA4AB"/>
<path d="M256.383 121.215H208.362C208.309 121.215 208.257 121.205 208.208 121.185C208.159 121.165 208.114 121.135 208.076 121.098C208.039 121.06 208.009 121.016 207.988 120.967C207.968 120.917 207.958 120.865 207.958 120.812V17.3491C207.958 17.296 207.968 17.2434 207.988 17.1943C208.009 17.1453 208.039 17.1008 208.076 17.0633C208.114 17.0258 208.159 16.9961 208.208 16.976C208.257 16.9558 208.309 16.9456 208.362 16.9458H256.383C256.49 16.9458 256.593 16.9883 256.668 17.0639C256.744 17.1396 256.786 17.2421 256.786 17.3491V120.804C256.787 120.858 256.778 120.911 256.758 120.961C256.738 121.011 256.708 121.056 256.671 121.094C256.633 121.133 256.589 121.163 256.539 121.184C256.49 121.204 256.437 121.215 256.383 121.215ZM208.766 120.407H255.976V17.7542H208.766V120.407Z" fill="#9CA4AB"/>
<path d="M212.404 117.576C212.297 117.576 212.194 117.533 212.118 117.457C212.043 117.381 212 117.278 211.999 117.171V21.3948C211.999 21.3416 212.01 21.2889 212.03 21.2398C212.05 21.1906 212.08 21.146 212.118 21.1083C212.155 21.0707 212.2 21.0409 212.249 21.0205C212.298 21.0002 212.351 20.9897 212.404 20.9897H251.532C251.587 20.986 251.642 20.9936 251.695 21.0122C251.747 21.0309 251.795 21.06 251.835 21.0979C251.876 21.1358 251.908 21.1817 251.93 21.2326C251.952 21.2835 251.964 21.3384 251.964 21.3939C251.964 21.4494 251.952 21.5043 251.93 21.5552C251.908 21.6061 251.876 21.652 251.835 21.6899C251.795 21.7278 251.747 21.7569 251.695 21.7756C251.642 21.7942 251.587 21.8019 251.532 21.7981H212.809V117.171C212.809 117.278 212.766 117.381 212.69 117.457C212.614 117.533 212.511 117.576 212.404 117.576Z" fill="#9CA4AB"/>
<path d="M318.81 121.215H270.789C270.736 121.215 270.683 121.205 270.634 121.185C270.585 121.165 270.54 121.135 270.503 121.098C270.465 121.06 270.435 121.016 270.415 120.967C270.394 120.917 270.384 120.865 270.384 120.812V17.3491C270.384 17.296 270.394 17.2434 270.415 17.1943C270.435 17.1453 270.465 17.1008 270.503 17.0633C270.54 17.0258 270.585 16.9961 270.634 16.976C270.683 16.9558 270.736 16.9456 270.789 16.9458H318.81C318.917 16.9458 319.019 16.9882 319.095 17.0638C319.171 17.1394 319.214 17.242 319.215 17.3491V120.804C319.215 120.858 319.205 120.911 319.185 120.961C319.165 121.011 319.136 121.056 319.098 121.094C319.06 121.133 319.015 121.163 318.966 121.184C318.916 121.204 318.863 121.215 318.81 121.215ZM271.192 120.407H318.405V17.7542H271.192V120.407Z" fill="#9CA4AB"/>
<path d="M274.831 117.674C274.723 117.673 274.621 117.63 274.545 117.554C274.469 117.479 274.426 117.376 274.426 117.269V21.3948C274.426 21.2874 274.468 21.1843 274.544 21.1083C274.62 21.0324 274.723 20.9897 274.831 20.9897H315.464C315.519 20.986 315.574 20.9936 315.627 21.0122C315.679 21.0309 315.727 21.06 315.767 21.0979C315.808 21.1358 315.84 21.1817 315.862 21.2326C315.884 21.2835 315.896 21.3384 315.896 21.3939C315.896 21.4494 315.884 21.5043 315.862 21.5552C315.84 21.6061 315.808 21.652 315.767 21.6899C315.727 21.7278 315.679 21.7569 315.627 21.7756C315.574 21.7942 315.519 21.8019 315.464 21.7981H275.236V117.27C275.235 117.377 275.192 117.48 275.116 117.555C275.04 117.631 274.938 117.673 274.831 117.674Z" fill="#9CA4AB"/>
<path d="M256.383 268.639H208.362C208.309 268.639 208.256 268.629 208.207 268.608C208.158 268.588 208.113 268.558 208.076 268.521C208.038 268.483 208.008 268.438 207.988 268.389C207.968 268.34 207.957 268.287 207.958 268.234V164.773C207.958 164.72 207.968 164.667 207.988 164.618C208.009 164.569 208.039 164.524 208.076 164.487C208.114 164.449 208.159 164.42 208.208 164.4C208.257 164.379 208.309 164.369 208.362 164.369H256.383C256.436 164.369 256.489 164.38 256.537 164.4C256.586 164.42 256.631 164.45 256.668 164.488C256.706 164.525 256.735 164.569 256.756 164.618C256.776 164.667 256.786 164.72 256.786 164.773V268.234C256.787 268.287 256.776 268.339 256.756 268.388C256.736 268.438 256.706 268.482 256.669 268.52C256.631 268.558 256.587 268.587 256.538 268.608C256.489 268.628 256.436 268.639 256.383 268.639ZM208.766 267.83H255.976V165.185H208.766V267.83Z" fill="#9CA4AB"/>
<path d="M212.404 204.726C212.297 204.726 212.194 204.683 212.118 204.607C212.043 204.531 212 204.429 211.999 204.321V168.817C212 168.709 212.043 168.607 212.119 168.531C212.194 168.456 212.297 168.413 212.404 168.413H244.171C244.274 168.42 244.37 168.466 244.44 168.541C244.51 168.616 244.549 168.715 244.549 168.818C244.549 168.92 244.51 169.019 244.44 169.094C244.37 169.169 244.274 169.215 244.171 169.222H212.809V204.321C212.809 204.429 212.766 204.531 212.69 204.607C212.614 204.683 212.511 204.726 212.404 204.726Z" fill="#9CA4AB"/>
<path d="M212.404 265.149C212.351 265.149 212.298 265.138 212.249 265.118C212.2 265.098 212.155 265.068 212.118 265.03C212.08 264.993 212.05 264.948 212.03 264.899C212.01 264.85 211.999 264.797 211.999 264.744V204.321C211.999 204.214 212.042 204.111 212.118 204.035C212.194 203.959 212.297 203.916 212.404 203.916C212.512 203.916 212.615 203.959 212.69 204.035C212.766 204.111 212.809 204.214 212.809 204.321V264.744C212.809 264.851 212.766 264.954 212.69 265.03C212.615 265.106 212.512 265.149 212.404 265.149Z" fill="#9CA4AB"/>
<path d="M318.81 268.639H270.789C270.736 268.639 270.683 268.629 270.634 268.608C270.584 268.588 270.54 268.558 270.502 268.521C270.464 268.483 270.435 268.438 270.414 268.389C270.394 268.34 270.384 268.287 270.384 268.234V164.773C270.384 164.72 270.394 164.667 270.415 164.618C270.435 164.569 270.465 164.524 270.503 164.487C270.54 164.449 270.585 164.42 270.634 164.4C270.683 164.379 270.736 164.369 270.789 164.369H318.81C318.917 164.369 319.019 164.412 319.095 164.487C319.171 164.563 319.214 164.666 319.215 164.773V268.234C319.215 268.341 319.172 268.444 319.096 268.52C319.02 268.596 318.917 268.639 318.81 268.639ZM271.192 267.83H318.405V165.185H271.192V267.83Z" fill="#9CA4AB"/>
<path d="M274.831 265.149C274.723 265.149 274.62 265.106 274.544 265.03C274.468 264.954 274.426 264.851 274.426 264.744V168.817C274.426 168.71 274.469 168.607 274.545 168.532C274.621 168.456 274.724 168.414 274.831 168.414H314.808C314.864 168.41 314.919 168.417 314.972 168.436C315.024 168.455 315.072 168.484 315.112 168.522C315.153 168.56 315.185 168.605 315.207 168.656C315.229 168.707 315.241 168.762 315.241 168.818C315.241 168.873 315.229 168.928 315.207 168.979C315.185 169.03 315.153 169.076 315.112 169.114C315.072 169.152 315.024 169.181 314.972 169.199C314.919 169.218 314.864 169.226 314.808 169.222H275.237V264.744C275.237 264.797 275.227 264.85 275.206 264.899C275.186 264.949 275.156 264.993 275.118 265.031C275.08 265.069 275.036 265.099 274.986 265.119C274.937 265.139 274.884 265.149 274.831 265.149Z" fill="#9CA4AB"/>
<path d="M318.81 152.23H208.362C208.309 152.23 208.257 152.22 208.208 152.2C208.159 152.18 208.114 152.15 208.076 152.113C208.039 152.075 208.009 152.031 207.988 151.982C207.968 151.933 207.958 151.88 207.958 151.827V133.61C207.958 133.557 207.968 133.505 207.988 133.455C208.009 133.406 208.039 133.362 208.076 133.324C208.114 133.286 208.158 133.257 208.207 133.236C208.257 133.216 208.309 133.205 208.362 133.205H318.81C318.917 133.206 319.02 133.249 319.095 133.325C319.171 133.4 319.214 133.503 319.215 133.61V151.827C319.214 151.934 319.171 152.037 319.095 152.112C319.019 152.188 318.917 152.23 318.81 152.23ZM208.766 151.422H318.405V134.014H208.766V151.422Z" fill="#9CA4AB"/>
<path d="M301.859 138.06H273.783C273.676 138.06 273.573 138.017 273.497 137.941C273.421 137.865 273.378 137.762 273.378 137.654C273.378 137.547 273.421 137.444 273.497 137.368C273.573 137.292 273.676 137.249 273.783 137.249H301.859C301.966 137.249 302.069 137.292 302.145 137.368C302.221 137.444 302.263 137.547 302.263 137.654C302.263 137.762 302.221 137.865 302.145 137.941C302.069 138.017 301.966 138.06 301.859 138.06Z" fill="#9CA4AB"/>
<path d="M240.025 152.23H208.368C208.315 152.23 208.262 152.22 208.213 152.2C208.164 152.18 208.119 152.15 208.082 152.113C208.044 152.075 208.014 152.031 207.994 151.982C207.973 151.933 207.963 151.88 207.963 151.827V133.61C207.963 133.557 207.973 133.505 207.994 133.455C208.014 133.406 208.044 133.362 208.082 133.324C208.119 133.286 208.164 133.257 208.213 133.236C208.262 133.216 208.315 133.205 208.368 133.205H240.025C240.132 133.206 240.234 133.249 240.31 133.325C240.385 133.401 240.428 133.503 240.428 133.61V151.827C240.428 151.934 240.385 152.036 240.31 152.112C240.234 152.188 240.132 152.23 240.025 152.23ZM208.765 151.422H239.62V134.014H208.765V151.422Z" fill="#9CA4AB"/>
<path d="M211.999 148.38C211.892 148.38 211.79 148.337 211.714 148.261C211.639 148.186 211.596 148.083 211.596 147.976V137.664C211.596 137.557 211.639 137.454 211.714 137.378C211.79 137.302 211.892 137.259 211.999 137.259H268.972C269.08 137.259 269.183 137.301 269.259 137.377C269.335 137.453 269.377 137.556 269.377 137.664C269.377 137.771 269.335 137.874 269.259 137.95C269.183 138.026 269.08 138.069 268.972 138.069H212.404V147.985C212.402 148.091 212.358 148.192 212.282 148.265C212.207 148.339 212.105 148.38 211.999 148.38Z" fill="#9CA4AB"/>
<path d="M327 154.707C327.695 154.707 328.361 154.431 328.852 153.939C329.343 153.448 329.619 152.781 329.619 152.086V133.352C329.619 132.657 329.343 131.991 328.852 131.499C328.361 131.008 327.695 130.732 327 130.732C326.305 130.732 325.639 131.008 325.148 131.499C324.657 131.991 324.381 132.657 324.381 133.352V152.086C324.381 152.781 324.657 153.448 325.148 153.939C325.639 154.431 326.305 154.707 327 154.707Z" fill="#9CA4AB"/>
<path d="M329.426 142.719C329.426 142.024 329.15 141.357 328.659 140.866C328.167 140.374 327.501 140.098 326.807 140.098H308.083C307.389 140.098 306.722 140.374 306.231 140.866C305.74 141.357 305.464 142.024 305.464 142.719C305.464 143.414 305.74 144.08 306.231 144.572C306.722 145.063 307.389 145.339 308.083 145.339H326.807C327.151 145.339 327.491 145.271 327.809 145.14C328.127 145.008 328.415 144.815 328.659 144.572C328.902 144.328 329.095 144.039 329.226 143.721C329.358 143.404 329.426 143.063 329.426 142.719Z" fill="white"/>
<path d="M326.807 145.744H308.083C307.68 145.754 307.279 145.683 306.903 145.536C306.528 145.388 306.186 145.167 305.897 144.885C305.608 144.603 305.379 144.266 305.222 143.895C305.065 143.523 304.985 143.123 304.985 142.719C304.985 142.316 305.065 141.916 305.222 141.544C305.379 141.172 305.608 140.836 305.897 140.554C306.186 140.272 306.528 140.051 306.903 139.903C307.279 139.756 307.68 139.685 308.083 139.695H326.807C327.21 139.685 327.611 139.756 327.987 139.903C328.362 140.051 328.704 140.272 328.993 140.554C329.282 140.836 329.511 141.172 329.668 141.544C329.825 141.916 329.905 142.316 329.905 142.719C329.905 143.123 329.825 143.523 329.668 143.895C329.511 144.266 329.282 144.603 328.993 144.885C328.704 145.167 328.362 145.388 327.987 145.536C327.611 145.683 327.21 145.754 326.807 145.744ZM308.083 140.509C307.496 140.509 306.932 140.742 306.517 141.158C306.101 141.574 305.868 142.137 305.868 142.725C305.868 143.313 306.101 143.877 306.517 144.292C306.932 144.708 307.496 144.941 308.083 144.941H326.807C327.394 144.941 327.958 144.708 328.373 144.292C328.788 143.877 329.022 143.313 329.022 142.725C329.022 142.137 328.788 141.574 328.373 141.158C327.958 140.742 327.394 140.509 326.807 140.509H308.083Z" fill="#9CA4AB"/>
<path d="M282.443 306.541L281.295 316.752L274.838 317.513L275.013 305.397L282.443 306.541Z" fill="white"/>
<path d="M274.836 317.918C274.736 317.918 274.64 317.881 274.566 317.815C274.523 317.776 274.489 317.729 274.466 317.676C274.443 317.623 274.432 317.565 274.433 317.507L274.617 305.392C274.618 305.334 274.631 305.277 274.656 305.225C274.681 305.172 274.717 305.126 274.761 305.088C274.805 305.051 274.856 305.024 274.912 305.008C274.967 304.993 275.026 304.989 275.083 304.998L282.515 306.142C282.618 306.158 282.711 306.213 282.774 306.296C282.837 306.379 282.866 306.484 282.853 306.587L281.705 316.799C281.695 316.889 281.654 316.973 281.59 317.038C281.526 317.102 281.442 317.143 281.352 317.154L274.893 317.916L274.836 317.918ZM275.41 305.869L275.248 317.058L280.928 316.388L281.998 306.882L275.41 305.869Z" fill="#9CA4AB"/>
<path d="M273.564 335.295C277.625 335.923 281.756 335.953 285.826 335.381C287.525 335.144 288.673 333.389 288.29 331.606C287.223 326.634 285.399 317.211 282.095 312.822L281.225 315.181L280.1 312.946C280.028 312.8 279.921 312.673 279.789 312.577C279.658 312.481 279.505 312.418 279.344 312.393L277.63 312.08C277.367 312.05 277.102 312.121 276.89 312.28C276.677 312.438 276.533 312.672 276.487 312.933L276.055 314.983L274.398 312.233L271.17 331.823C270.942 333.501 272.005 335.048 273.564 335.295Z" fill="white"/>
<path d="M279.971 336.193C277.804 336.196 275.641 336.029 273.5 335.694C271.737 335.414 270.511 333.65 270.772 331.763L274.001 312.161C274.016 312.082 274.055 312.01 274.112 311.953C274.169 311.896 274.241 311.857 274.32 311.842C274.399 311.826 274.481 311.835 274.555 311.866C274.63 311.898 274.693 311.95 274.737 312.018L275.863 313.889L276.082 312.845C276.151 312.484 276.354 312.163 276.65 311.946C276.946 311.729 277.313 311.632 277.678 311.675L279.406 311.99C279.63 312.026 279.842 312.116 280.024 312.251C280.207 312.386 280.354 312.563 280.453 312.767L281.158 314.171L281.71 312.684C281.736 312.616 281.779 312.556 281.836 312.511C281.893 312.465 281.961 312.435 282.033 312.425C282.104 312.414 282.178 312.422 282.245 312.45C282.312 312.478 282.37 312.523 282.414 312.581C285.542 316.741 287.366 325.321 288.454 330.444L288.682 331.518C288.788 332.009 288.792 332.516 288.694 333.009C288.596 333.501 288.398 333.968 288.112 334.381C287.857 334.757 287.526 335.075 287.142 335.315C286.757 335.556 286.326 335.714 285.877 335.779C283.921 336.054 281.947 336.192 279.971 336.193ZM274.621 313.377L271.571 331.884C271.372 333.328 272.294 334.683 273.627 334.895C277.65 335.519 281.743 335.549 285.774 334.982C286.113 334.931 286.437 334.811 286.727 334.628C287.016 334.446 287.265 334.205 287.457 333.921C287.679 333.599 287.833 333.235 287.909 332.852C287.985 332.468 287.981 332.073 287.898 331.691L287.67 330.615C286.649 325.803 284.974 317.909 282.209 313.688L281.607 315.323C281.579 315.396 281.531 315.459 281.468 315.505C281.405 315.551 281.331 315.577 281.253 315.582C281.175 315.586 281.098 315.568 281.03 315.53C280.963 315.492 280.907 315.435 280.871 315.366L279.748 313.13C279.706 313.041 279.643 312.963 279.564 312.903C279.485 312.844 279.393 312.804 279.296 312.788L277.566 312.473C277.406 312.462 277.249 312.512 277.124 312.612C277 312.712 276.917 312.854 276.892 313.012L276.459 315.062C276.442 315.14 276.401 315.211 276.343 315.266C276.285 315.321 276.212 315.358 276.133 315.371C276.054 315.384 275.973 315.374 275.9 315.341C275.827 315.307 275.765 315.253 275.723 315.185L274.621 313.377Z" fill="#9CA4AB"/>
<path d="M273.564 335.295C277.625 335.923 281.756 335.953 285.826 335.381C287.525 335.144 288.673 333.389 288.29 331.606C288.248 331.405 288.202 331.194 288.156 330.98C280.934 333.28 274.094 331.464 271.385 330.529L271.172 331.818C270.942 333.501 272.005 335.048 273.564 335.295Z" fill="white"/>
<path d="M279.971 336.193C277.804 336.196 275.641 336.029 273.5 335.694C271.737 335.414 270.511 333.65 270.772 331.763L270.986 330.474C270.994 330.416 271.015 330.361 271.047 330.312C271.078 330.264 271.12 330.222 271.17 330.192C271.22 330.162 271.277 330.143 271.335 330.137C271.394 330.131 271.453 330.138 271.508 330.157C274.096 331.048 280.884 332.879 288.027 330.602C288.081 330.586 288.138 330.581 288.194 330.587C288.25 330.593 288.304 330.611 288.353 330.639C288.4 330.668 288.441 330.707 288.472 330.753C288.504 330.798 288.526 330.85 288.537 330.904L288.671 331.531C288.777 332.022 288.781 332.529 288.683 333.022C288.585 333.514 288.387 333.981 288.101 334.394C287.846 334.77 287.515 335.088 287.13 335.328C286.746 335.569 286.315 335.727 285.866 335.792C283.913 336.062 281.943 336.196 279.971 336.193ZM271.705 331.063L271.571 331.884C271.372 333.328 272.294 334.683 273.627 334.895C277.65 335.519 281.743 335.549 285.774 334.982C286.113 334.931 286.437 334.811 286.727 334.628C287.016 334.446 287.265 334.205 287.457 333.921C287.679 333.599 287.833 333.235 287.909 332.852C287.985 332.468 287.981 332.073 287.898 331.691L287.858 331.496C281.022 333.527 274.589 331.996 271.705 331.063Z" fill="#9CA4AB"/>
<path d="M282.721 325.329H282.702L276.664 325.069C276.557 325.064 276.456 325.017 276.383 324.938C276.311 324.859 276.273 324.754 276.277 324.647C276.283 324.54 276.331 324.44 276.41 324.368C276.488 324.296 276.592 324.257 276.699 324.26L282.737 324.52C282.84 324.529 282.935 324.576 283.004 324.653C283.073 324.729 283.11 324.829 283.108 324.932C283.106 325.035 283.065 325.133 282.993 325.207C282.921 325.28 282.824 325.324 282.721 325.329Z" fill="#9CA4AB"/>
<path d="M251.513 301.692L250.332 316.598L242.574 316.539L242.43 301.624L251.513 301.692Z" fill="white"/>
<path d="M250.332 317.001L242.576 316.944C242.47 316.943 242.368 316.9 242.293 316.825C242.218 316.75 242.175 316.649 242.174 316.543L242.029 301.626C242.029 301.572 242.039 301.519 242.06 301.47C242.081 301.42 242.111 301.375 242.149 301.337C242.186 301.299 242.231 301.268 242.281 301.248C242.331 301.227 242.384 301.217 242.438 301.217L251.521 301.287C251.576 301.287 251.631 301.299 251.682 301.322C251.732 301.344 251.778 301.377 251.815 301.418C251.853 301.459 251.881 301.507 251.899 301.56C251.917 301.613 251.924 301.668 251.92 301.724L250.737 316.627C250.729 316.729 250.683 316.825 250.608 316.894C250.533 316.964 250.434 317.002 250.332 317.001ZM242.97 316.137L249.952 316.191L251.07 302.094L242.833 302.031L242.97 316.137Z" fill="#9CA4AB"/>
<path d="M251.938 325.31C251.938 326.721 251.018 327.953 249.73 328.256C245.255 329.336 235.175 331.737 232.302 332.173C228.575 332.739 224.02 331.483 222.093 329.137C220.166 326.791 223.64 322.45 229.657 319.268C234.419 316.749 238.584 310.379 240.395 310.125C242.206 309.871 245.5 315.517 245.5 315.517L251.051 313.077C251.051 313.077 251.942 318.156 251.938 325.31Z" fill="white"/>
<path d="M230.46 332.718C227.003 332.718 223.438 331.409 221.783 329.404C221.51 329.063 221.318 328.665 221.222 328.238C221.126 327.812 221.13 327.37 221.231 326.945C221.737 324.417 224.898 321.343 229.475 318.922C232.041 317.566 234.459 315.034 236.403 312.999C238.138 311.182 239.393 309.869 240.347 309.736C242.163 309.48 244.812 313.585 245.671 315.014L250.897 312.716C250.952 312.692 251.013 312.682 251.073 312.685C251.133 312.688 251.192 312.705 251.245 312.734C251.298 312.763 251.344 312.804 251.379 312.853C251.414 312.902 251.438 312.958 251.449 313.018C251.449 313.067 252.343 318.207 252.338 325.315C252.338 326.903 251.279 328.31 249.825 328.661C245.541 329.695 235.265 332.144 232.363 332.584C231.733 332.676 231.096 332.721 230.46 332.718ZM240.531 310.526C240.506 310.524 240.481 310.524 240.455 310.526C239.78 310.62 238.422 312.042 236.984 313.548C234.998 315.623 232.53 318.209 229.849 319.625C225.547 321.901 222.474 324.833 222.021 327.092C221.881 327.796 222.01 328.396 222.407 328.879C224.207 331.065 228.529 332.337 232.245 331.772C235.116 331.337 245.366 328.893 249.64 327.864C250.744 327.599 251.533 326.523 251.533 325.304C251.545 321.408 251.279 317.515 250.738 313.657L245.67 315.894C245.579 315.933 245.476 315.938 245.382 315.907C245.288 315.876 245.208 315.812 245.158 315.727C243.873 313.531 241.62 310.526 240.531 310.526Z" fill="#9CA4AB"/>
<path d="M232.306 332.179C235.179 331.742 245.257 329.341 249.733 328.262C251.022 327.953 251.942 326.721 251.942 325.316C251.942 324.677 251.935 324.056 251.922 323.452C246.855 325.328 227.899 331.768 222.304 325.395C221.434 326.84 221.294 328.168 222.1 329.148C224.027 331.488 228.579 332.744 232.306 332.179Z" fill="white"/>
<path d="M230.46 332.718C227.003 332.718 223.438 331.409 221.783 329.404C220.9 328.332 220.963 326.826 221.955 325.185C221.988 325.131 222.033 325.085 222.087 325.051C222.141 325.018 222.202 324.997 222.265 324.992C222.328 324.986 222.392 324.996 222.451 325.019C222.51 325.043 222.562 325.08 222.604 325.128C228.126 331.409 247.874 324.518 251.778 323.073C251.839 323.048 251.904 323.039 251.969 323.046C252.034 323.053 252.097 323.075 252.151 323.112C252.205 323.148 252.25 323.197 252.281 323.254C252.312 323.311 252.329 323.376 252.33 323.441C252.343 324.049 252.351 324.673 252.349 325.314C252.349 326.901 251.29 328.308 249.836 328.66C245.552 329.693 235.276 332.142 232.374 332.582C231.74 332.675 231.1 332.721 230.46 332.718ZM222.385 326.065C221.949 326.949 221.701 328.032 222.402 328.884C224.202 331.07 228.523 332.343 232.239 331.777C235.111 331.343 245.36 328.899 249.634 327.87C250.738 327.605 251.528 326.529 251.528 325.31C251.528 324.872 251.528 324.443 251.528 324.021C245.486 326.212 228.339 331.719 222.391 326.065H222.385Z" fill="#9CA4AB"/>
<path d="M239.5 320.734C239.404 320.734 239.311 320.7 239.237 320.638L235.792 317.681C235.751 317.646 235.718 317.604 235.694 317.556C235.67 317.509 235.656 317.457 235.652 317.404C235.648 317.352 235.654 317.298 235.671 317.248C235.687 317.197 235.714 317.151 235.748 317.111C235.783 317.07 235.825 317.037 235.872 317.013C235.92 316.989 235.971 316.975 236.024 316.971C236.077 316.967 236.13 316.973 236.181 316.99C236.231 317.006 236.278 317.033 236.318 317.067L239.763 320.014C239.826 320.067 239.872 320.139 239.893 320.219C239.914 320.299 239.909 320.384 239.881 320.461C239.852 320.539 239.8 320.606 239.732 320.653C239.664 320.7 239.583 320.725 239.5 320.725V320.734Z" fill="#9CA4AB"/>
<path d="M283.558 194.974C283.558 194.974 285.399 199.44 286.014 209.367C287.118 227.331 287.405 257.091 288.064 267.46C289.089 283.563 284.598 308.368 284.598 308.368L272.635 307.604C272.635 307.604 272.267 283.64 271.659 272.02C271.543 269.825 271.097 267.659 270.338 265.597C268.818 261.442 266.138 253.393 265.185 245.986C263.839 235.416 258.976 218.696 258.976 218.696C258.976 218.696 253.622 301.917 253.129 308.454C253.129 308.454 243.743 308.823 240.4 306.537C240.4 306.537 234.879 276.136 235.974 259.626C237.069 243.117 236.725 202.075 236.725 202.075L283.558 194.974Z" fill="#9CA4AB"/>
<path d="M280.746 210.583C274.488 210.583 272.882 204.382 272.867 204.321C272.848 204.219 272.868 204.114 272.925 204.027C272.982 203.94 273.07 203.878 273.171 203.854C273.272 203.83 273.378 203.846 273.468 203.899C273.557 203.952 273.623 204.037 273.651 204.137C273.712 204.375 275.173 209.955 281.013 209.782C281.068 209.777 281.123 209.783 281.176 209.8C281.228 209.817 281.277 209.845 281.318 209.882C281.359 209.919 281.393 209.963 281.416 210.013C281.44 210.064 281.452 210.118 281.454 210.173C281.456 210.228 281.446 210.283 281.426 210.335C281.405 210.386 281.375 210.433 281.335 210.472C281.296 210.511 281.25 210.541 281.198 210.562C281.147 210.582 281.092 210.592 281.037 210.59L280.746 210.583Z" fill="white"/>
<path d="M180.642 147.431C179.284 147.063 179.77 148.302 180.801 149.273C181.535 149.921 182.345 150.477 183.214 150.93C183.246 150.947 183.272 150.974 183.288 151.007C183.304 151.04 183.309 151.077 183.303 151.113C183.296 151.149 183.279 151.182 183.253 151.207C183.226 151.232 183.193 151.249 183.157 151.254C177.917 151.924 174.258 154.865 172.463 156.664C172.225 156.898 172.04 157.182 171.922 157.495C171.805 157.808 171.757 158.143 171.783 158.476C171.808 158.809 171.906 159.133 172.07 159.425C172.233 159.716 172.459 159.968 172.73 160.163C177.274 163.34 189.295 159.979 190.728 160.053C192.017 160.121 201.643 166.344 201.643 166.344C205.707 170.027 209.47 174.131 213.499 175.183C220.898 177.115 237.269 159.771 240.017 151.849C240.017 151.849 233.885 144.265 226.098 142.273C225.56 142.135 213.231 158.178 212.68 158.035C203.873 155.751 196.651 154.72 192.228 152.869C191.089 152.385 190.016 151.757 189.037 151C187.905 150.127 185.485 148.729 180.642 147.431Z" fill="white"/>
<path d="M214.749 175.741C214.295 175.744 213.843 175.689 213.404 175.577C209.984 174.684 206.831 171.732 203.494 168.607C202.804 167.96 202.107 167.307 201.4 166.668C196.787 163.684 191.481 160.5 190.712 160.46C190.441 160.445 189.508 160.615 188.435 160.812C184.147 161.596 176.165 163.056 172.504 160.497C172.19 160.274 171.928 159.986 171.737 159.651C171.547 159.317 171.431 158.945 171.399 158.561C171.364 158.163 171.416 157.761 171.553 157.385C171.689 157.009 171.906 156.668 172.189 156.385C173.879 154.69 177.403 151.805 182.444 150.959C181.761 150.565 181.121 150.1 180.536 149.571C179.849 148.923 179.168 147.947 179.512 147.332C179.65 147.083 179.978 146.831 180.76 147.039C185.577 148.328 188.062 149.728 189.297 150.67C190.248 151.407 191.29 152.018 192.398 152.488C195.076 153.604 198.91 154.447 203.347 155.423C206.132 156.037 209.283 156.729 212.636 157.595C213.354 156.981 216.553 153.031 219.146 149.829C225.691 141.741 225.792 141.767 226.212 141.875C234.038 143.886 240.091 151.284 240.345 151.597C240.388 151.65 240.417 151.714 240.429 151.781C240.44 151.849 240.434 151.919 240.411 151.983C237.794 159.491 222.987 175.739 214.749 175.741ZM190.684 159.65H190.756C192.089 159.72 200.246 164.955 201.867 166.005C201.885 166.017 201.902 166.03 201.919 166.043C202.637 166.694 203.345 167.356 204.046 168.014C207.308 171.067 210.387 173.951 213.617 174.793C216.716 175.601 222.187 172.658 228.24 166.918C233.526 161.904 238.144 155.788 239.574 151.932C238.613 150.807 233.016 144.531 226.171 142.698C225.463 143.312 222.321 147.192 219.775 150.335C213.12 158.556 213.017 158.528 212.597 158.418C209.2 157.537 206.001 156.832 203.178 156.208C198.703 155.224 194.838 154.366 192.092 153.23C190.921 152.732 189.818 152.086 188.811 151.308C187.633 150.409 185.246 149.074 180.556 147.809C180.453 147.775 180.346 147.758 180.238 147.757C180.28 147.965 180.552 148.457 181.097 148.971C181.805 149.594 182.586 150.13 183.422 150.567C183.53 150.624 183.617 150.715 183.67 150.825C183.724 150.935 183.741 151.059 183.719 151.179C183.697 151.299 183.638 151.41 183.549 151.494C183.461 151.578 183.348 151.632 183.227 151.648C178.064 152.309 174.458 155.248 172.767 156.943C172.569 157.142 172.416 157.383 172.321 157.648C172.225 157.913 172.189 158.196 172.215 158.477C172.237 158.743 172.318 159.002 172.451 159.234C172.584 159.467 172.767 159.667 172.986 159.821C176.369 162.185 184.432 160.71 188.308 160.005C189.574 159.779 190.301 159.65 190.679 159.65H190.684Z" fill="#9CA4AB"/>
<path d="M235.446 132.244C236.704 131.813 237.997 131.49 239.311 131.279C249.802 129.592 258.224 130.152 263.151 130.159C266.129 130.162 268.991 131.315 271.14 133.378C274.442 136.551 279.02 141.849 280.849 148.252C282.653 154.558 280.801 164.826 280.985 170.793C281.475 186.711 283.551 194.974 283.551 194.974C283.551 194.974 275.368 199.224 253.619 199.077C242.517 199.001 237.271 195.849 237.271 195.849L234.028 161.412L235.446 132.244Z" fill="white"/>
<path d="M254.741 199.486H253.622C242.537 199.41 237.288 196.331 237.071 196.198C237.017 196.166 236.971 196.121 236.937 196.068C236.903 196.014 236.882 195.954 236.876 195.891L233.634 161.454C233.632 161.435 233.632 161.416 233.634 161.397L235.044 132.227C235.047 132.146 235.075 132.067 235.124 132.001C235.172 131.935 235.24 131.886 235.317 131.859C236.6 131.422 237.917 131.094 239.255 130.877C247.948 129.48 255.36 129.622 260.263 129.714C261.33 129.734 262.299 129.752 263.16 129.754C266.243 129.751 269.208 130.944 271.429 133.084C274.897 136.417 279.413 141.739 281.247 148.138C282.458 152.374 282.051 158.32 281.692 163.568C281.508 166.242 281.335 168.769 281.398 170.778C281.882 186.46 283.932 194.79 283.952 194.872C283.974 194.961 283.966 195.054 283.928 195.137C283.891 195.221 283.827 195.289 283.746 195.331C283.413 195.504 275.506 199.486 254.741 199.486ZM237.661 195.598C238.654 196.121 243.882 198.605 253.628 198.672C272.845 198.802 281.477 195.454 283.089 194.745C282.71 193.055 281.02 184.853 280.588 170.806C280.525 168.756 280.698 166.202 280.884 163.515C281.237 158.333 281.64 152.466 280.468 148.363C278.683 142.131 274.264 136.932 270.868 133.669C268.795 131.674 266.03 130.561 263.154 130.564C262.289 130.564 261.314 130.544 260.245 130.524C255.08 130.426 248.003 130.292 239.381 131.677C238.177 131.871 236.992 132.16 235.834 132.54L234.442 161.406L237.661 195.598Z" fill="#9CA4AB"/>
<path d="M283.558 194.974C279.217 193.442 275.293 189.248 274.812 184.661L270.829 146.643C270.859 146.088 270.668 145.544 270.3 145.128C269.931 144.713 269.414 144.459 268.86 144.422L244.013 142.765C243.458 142.727 242.911 142.91 242.49 143.275C242.07 143.639 241.81 144.154 241.768 144.709L240.01 207.564L283.551 201.292L283.558 194.974Z" fill="#9CA4AB"/>
<path d="M248.141 152.337C248.175 152.337 248.554 152.075 248.587 152.064C249.54 151.753 251.673 149.042 251.068 148.216C244.841 139.745 246.974 131.34 247.16 130.614C247.208 130.428 247.216 130.234 247.184 130.044C247.152 129.854 247.081 129.673 246.976 129.513C246.87 129.352 246.732 129.215 246.57 129.111C246.409 129.007 246.228 128.937 246.038 128.907C245.254 128.776 244.394 128.686 244.013 128.824C242.83 129.259 239.266 135.678 245.826 151.825C246.207 152.746 247.217 152.582 248.141 152.337Z" fill="#9CA4AB"/>
<path d="M234.036 161.416C234.036 161.416 218.778 157.163 218.666 147.554C218.666 147.554 224.106 136.12 235.446 132.244L234.036 161.416Z" fill="white"/>
<path d="M234.036 161.819C233.999 161.819 233.962 161.814 233.927 161.804C233.292 161.62 218.377 157.359 218.261 147.558C218.26 147.495 218.273 147.432 218.299 147.374C218.355 147.258 223.946 135.743 235.315 131.855C235.377 131.834 235.444 131.829 235.509 131.839C235.574 131.85 235.636 131.876 235.689 131.916C235.741 131.956 235.784 132.008 235.812 132.067C235.84 132.127 235.853 132.193 235.85 132.259L234.439 161.428C234.436 161.489 234.42 161.549 234.391 161.602C234.363 161.656 234.322 161.702 234.273 161.738C234.204 161.789 234.121 161.817 234.036 161.819ZM219.071 147.639C219.255 155.823 231.089 160.049 233.657 160.87L235.013 132.822C224.835 136.603 219.582 146.628 219.071 147.645V147.639Z" fill="#9CA4AB"/>
<path d="M265.797 150.018C265.797 150.018 269.408 161.416 262.692 171.012L287.574 182.691L291.439 170.305C296.331 154.164 287.843 136.54 271.79 131.389C265.291 129.303 260.326 129.68 260.326 129.68L265.797 150.018Z" fill="white"/>
<path d="M287.574 183.096C287.515 183.096 287.457 183.083 287.403 183.057L280.617 179.871C280.569 179.849 280.525 179.817 280.489 179.778C280.453 179.739 280.425 179.693 280.407 179.642C280.389 179.592 280.38 179.539 280.383 179.486C280.385 179.433 280.398 179.38 280.42 179.332C280.443 179.284 280.475 179.24 280.514 179.204C280.553 179.168 280.599 179.14 280.649 179.122C280.699 179.103 280.752 179.095 280.806 179.097C280.859 179.1 280.911 179.112 280.96 179.135L287.326 182.122L291.058 170.179C295.96 154.003 287.263 136.772 271.67 131.769C269.229 130.982 266.711 130.457 264.159 130.202C264.058 130.185 263.966 130.13 263.904 130.049C263.841 129.967 263.811 129.865 263.822 129.762C263.832 129.66 263.88 129.565 263.958 129.497C264.035 129.429 264.136 129.393 264.238 129.397C266.848 129.657 269.421 130.194 271.917 130.999C287.93 136.135 296.862 153.819 291.831 170.408L287.966 182.798C287.949 182.853 287.921 182.904 287.882 182.946C287.844 182.989 287.797 183.023 287.744 183.046C287.692 183.076 287.634 183.093 287.574 183.096Z" fill="#9CA4AB"/>
<path d="M262.564 153.215C262.6 153.215 262.639 153.232 262.676 153.237C263.859 153.434 264.949 152.738 265.113 151.685C266.731 141.138 270.332 137.056 273.069 135.479C274.744 134.52 277.302 133.98 278.74 133.734C278.824 133.72 278.902 133.68 278.964 133.621C279.025 133.561 279.067 133.484 279.084 133.4C279.101 133.316 279.092 133.229 279.058 133.151C279.024 133.072 278.967 133.006 278.895 132.96C278.206 132.524 277.299 131.962 276.726 131.671C276.275 131.434 274.209 130.075 270.62 132.185C265.626 135.12 262.299 141.393 260.826 150.969C260.67 151.983 261.441 152.967 262.564 153.215Z" fill="#9CA4AB"/>
<path d="M141.392 197.506H70.44V52.5204H141.392V197.506ZM227.106 197.506H156.153V52.5204H227.106V197.506ZM56.927 39.1638V210.855H244.713V39.1638H56.927Z" fill="#9CA4AB"/>
<path d="M244.713 211.268H56.927C56.8199 211.267 56.7174 211.224 56.6419 211.148C56.5663 211.073 56.5239 210.97 56.5239 210.863V39.1639C56.5239 39.0568 56.5663 38.954 56.6419 38.8781C56.7174 38.8022 56.8199 38.7593 56.927 38.7588H244.713C244.82 38.7593 244.922 38.8021 244.998 38.878C245.074 38.9539 245.117 39.0566 245.117 39.1639V210.855C245.118 210.909 245.108 210.962 245.088 211.012C245.068 211.062 245.039 211.108 245.001 211.146C244.963 211.184 244.918 211.215 244.869 211.236C244.819 211.257 244.766 211.268 244.713 211.268ZM57.3319 210.458H244.308V39.5635H57.3319V210.458ZM227.106 197.911H156.153C156.046 197.911 155.943 197.868 155.868 197.792C155.792 197.716 155.75 197.613 155.75 197.506V52.5206C155.75 52.4134 155.792 52.3106 155.868 52.2347C155.943 52.1588 156.046 52.1159 156.153 52.1154H227.106C227.213 52.1159 227.316 52.1587 227.392 52.2346C227.468 52.3105 227.511 52.4133 227.511 52.5206V197.506C227.511 197.613 227.468 197.716 227.392 197.792C227.316 197.868 227.213 197.911 227.106 197.911ZM156.558 197.101H226.701V52.9257H156.558V197.101ZM141.392 197.911H70.44C70.3326 197.911 70.2297 197.869 70.1537 197.793C70.0778 197.717 70.0351 197.613 70.0351 197.506V52.5206C70.0351 52.4673 70.0456 52.4147 70.0659 52.3655C70.0863 52.3164 70.1161 52.2717 70.1537 52.2341C70.1913 52.1965 70.2359 52.1666 70.2851 52.1463C70.3342 52.1259 70.3869 52.1154 70.44 52.1154H141.392C141.445 52.1154 141.498 52.1259 141.547 52.1463C141.596 52.1666 141.64 52.1965 141.678 52.2341C141.716 52.2717 141.745 52.3164 141.766 52.3655C141.786 52.4147 141.797 52.4673 141.797 52.5206V197.506C141.797 197.613 141.754 197.717 141.678 197.793C141.602 197.869 141.499 197.911 141.392 197.911ZM70.8431 197.101H140.989V52.9257H70.8431V197.101Z" fill="white"/>
<path d="M56.5184 39.1638V206.767H236.115V39.1638H56.5184ZM140.983 197.506H65.9363V48.4322H140.983V197.506ZM226.696 197.506H151.651V48.4322H226.696V197.506Z" fill="white"/>
<path d="M236.114 207.172H56.5184C56.4114 207.172 56.3087 207.13 56.2328 207.054C56.1569 206.979 56.114 206.876 56.1135 206.769V39.1639C56.114 39.0566 56.1568 38.9539 56.2326 38.878C56.3085 38.8021 56.4112 38.7593 56.5184 38.7588H236.114C236.167 38.7588 236.219 38.7693 236.269 38.7896C236.318 38.81 236.362 38.8398 236.4 38.8775C236.438 38.9151 236.467 38.9597 236.488 39.0089C236.508 39.0581 236.519 39.1107 236.519 39.1639V206.767C236.519 206.82 236.508 206.873 236.488 206.922C236.468 206.972 236.438 207.016 236.4 207.054C236.363 207.092 236.318 207.122 236.269 207.142C236.22 207.162 236.167 207.172 236.114 207.172ZM56.9233 206.364H235.711V39.5691H56.9233V206.364ZM226.698 197.913H151.651C151.598 197.913 151.545 197.903 151.496 197.882C151.447 197.862 151.402 197.832 151.364 197.794C151.327 197.757 151.297 197.712 151.277 197.663C151.256 197.614 151.246 197.561 151.246 197.508V48.4324C151.246 48.3791 151.256 48.3263 151.276 48.277C151.296 48.2278 151.326 48.183 151.364 48.1453C151.402 48.1077 151.446 48.0778 151.496 48.0576C151.545 48.0373 151.598 48.027 151.651 48.0272H226.698C226.751 48.0272 226.803 48.0377 226.852 48.0581C226.901 48.0785 226.946 48.1083 226.983 48.146C227.021 48.1836 227.05 48.2283 227.071 48.2775C227.091 48.3266 227.101 48.3792 227.101 48.4324V197.513C227.099 197.619 227.055 197.72 226.98 197.794C226.905 197.869 226.803 197.911 226.698 197.911V197.913ZM152.054 197.103H226.293V48.8283H152.054V197.103ZM140.983 197.913H65.9363C65.8289 197.913 65.7259 197.87 65.65 197.794C65.5741 197.718 65.5314 197.615 65.5314 197.508V48.4324C65.5312 48.3791 65.5415 48.3263 65.5617 48.277C65.582 48.2278 65.6118 48.183 65.6495 48.1453C65.6871 48.1077 65.7318 48.0778 65.7811 48.0576C65.8303 48.0373 65.8831 48.027 65.9363 48.0272H140.983C141.036 48.0272 141.089 48.0377 141.138 48.0581C141.187 48.0785 141.231 48.1083 141.269 48.146C141.306 48.1836 141.336 48.2283 141.356 48.2775C141.376 48.3266 141.386 48.3792 141.386 48.4324V197.513C141.384 197.619 141.341 197.72 141.266 197.794C141.19 197.869 141.089 197.911 140.983 197.911V197.913ZM66.3394 197.103H140.576V48.8283H66.3394V197.103Z" fill="#9CA4AB"/>
<path d="M133.157 67.9912L79.188 172.378H97.6778L133.157 103.903V67.9912Z" fill="white"/>
<path d="M97.6778 172.783H79.188C79.1184 172.784 79.0499 172.766 78.9893 172.731C78.9286 172.697 78.8779 172.648 78.842 172.588C78.8056 172.529 78.7853 172.461 78.783 172.392C78.7808 172.323 78.7967 172.254 78.8291 172.192L132.798 67.8052C132.84 67.7251 132.908 67.6613 132.99 67.6239C133.072 67.5866 133.164 67.5778 133.252 67.5989C133.34 67.6201 133.418 67.67 133.474 67.7408C133.531 67.8115 133.561 67.899 133.562 67.9894V103.899C133.561 103.963 133.546 104.026 133.516 104.083L98.0367 172.564C98.0026 172.63 97.9512 172.686 97.8879 172.724C97.8246 172.763 97.7519 172.783 97.6778 172.783ZM79.8524 171.975H97.4311L132.754 103.803V69.6541L79.8524 171.975Z" fill="#9CA4AB"/>
<path d="M106.078 73.8491L79.188 126.187L79.1935 144.172L106.078 91.804V73.8491Z" fill="white"/>
<path d="M79.1935 144.577C79.1613 144.577 79.1292 144.573 79.0978 144.566C79.0095 144.544 78.9311 144.494 78.875 144.422C78.8189 144.351 78.7885 144.262 78.7886 144.172V126.187C78.7883 126.123 78.8035 126.06 78.8328 126.003L105.717 73.6612C105.759 73.5811 105.826 73.5173 105.908 73.4799C105.991 73.4425 106.083 73.4337 106.171 73.4549C106.259 73.476 106.337 73.526 106.393 73.5967C106.449 73.6675 106.48 73.755 106.481 73.8453V91.8003C106.481 91.8643 106.466 91.9274 106.437 91.9844L79.5524 144.356C79.5189 144.422 79.4677 144.478 79.4043 144.517C79.3409 144.556 79.2679 144.577 79.1935 144.577ZM79.591 126.285V142.49L105.673 91.7082V75.5211L79.591 126.285Z" fill="#9CA4AB"/>
<path d="M216.549 60.9656H205.819L160.844 147.326H171.556L216.549 60.9656Z" fill="white"/>
<path d="M171.556 147.731H160.844C160.775 147.731 160.706 147.713 160.646 147.679C160.586 147.645 160.535 147.596 160.499 147.536C160.463 147.477 160.443 147.409 160.44 147.34C160.438 147.271 160.453 147.202 160.485 147.14L205.462 60.7723C205.496 60.7068 205.547 60.6518 205.61 60.6135C205.673 60.5751 205.745 60.5549 205.819 60.555H216.549C216.619 60.5536 216.688 60.5704 216.75 60.6038C216.812 60.6373 216.864 60.6862 216.901 60.7458C216.938 60.8054 216.959 60.8737 216.962 60.9439C216.965 61.0141 216.949 61.0838 216.917 61.1461L171.922 147.514C171.888 147.581 171.835 147.637 171.77 147.675C171.705 147.714 171.631 147.733 171.556 147.731ZM161.51 146.923H171.313L215.886 61.369H206.067L161.51 146.923Z" fill="#9CA4AB"/>
<path d="M146.127 137.325C145.317 137.324 144.54 137.001 143.967 136.428C143.394 135.854 143.071 135.077 143.07 134.266C143.067 134.211 143.074 134.155 143.093 134.103C143.111 134.05 143.141 134.003 143.178 133.962C143.216 133.921 143.262 133.889 143.313 133.867C143.364 133.845 143.419 133.834 143.474 133.834C143.53 133.834 143.585 133.845 143.635 133.867C143.686 133.889 143.732 133.921 143.77 133.962C143.808 134.003 143.837 134.05 143.856 134.103C143.874 134.155 143.882 134.211 143.878 134.266C143.878 134.863 144.115 135.435 144.537 135.857C144.959 136.279 145.531 136.516 146.127 136.516C146.724 136.516 147.296 136.279 147.718 135.857C148.139 135.435 148.376 134.863 148.376 134.266V109.019C148.373 108.963 148.38 108.908 148.399 108.855C148.418 108.803 148.447 108.755 148.485 108.715C148.523 108.674 148.568 108.642 148.619 108.62C148.67 108.598 148.725 108.586 148.78 108.586C148.836 108.586 148.891 108.598 148.942 108.62C148.993 108.642 149.038 108.674 149.076 108.715C149.114 108.755 149.143 108.803 149.162 108.855C149.18 108.908 149.188 108.963 149.184 109.019V134.266C149.183 135.077 148.861 135.854 148.288 136.428C147.715 137.001 146.938 137.324 146.127 137.325Z" fill="#9CA4AB"/>
<path d="M168.155 122.999V122.931C168.155 121.484 166.982 120.311 165.536 120.311H146.505C145.058 120.311 143.886 121.484 143.886 122.931V122.999C143.886 124.447 145.058 125.62 146.505 125.62H165.536C166.982 125.62 168.155 124.447 168.155 122.999Z" fill="white"/>
<path d="M165.534 126.023H146.503C145.702 126.022 144.933 125.703 144.367 125.137C143.8 124.57 143.482 123.801 143.481 123V122.931C143.482 122.13 143.8 121.361 144.367 120.794C144.933 120.227 145.701 119.907 146.503 119.906H165.534C166.335 119.907 167.104 120.226 167.671 120.793C168.238 121.36 168.557 122.129 168.558 122.931V123C168.556 123.801 168.237 124.57 167.67 125.137C167.103 125.704 166.335 126.022 165.534 126.023ZM146.503 120.714C145.918 120.717 145.357 120.95 144.944 121.364C144.53 121.778 144.297 122.339 144.294 122.924V122.992C144.294 123.578 144.527 124.14 144.941 124.555C145.355 124.969 145.917 125.202 146.503 125.202H165.534C166.119 125.2 166.679 124.966 167.093 124.552C167.506 124.138 167.74 123.578 167.742 122.992V122.924C167.74 122.339 167.506 121.778 167.093 121.364C166.679 120.95 166.119 120.717 165.534 120.714H146.503Z" fill="#9CA4AB"/>
<path d="M264.183 171.712C264.183 171.712 256.985 185.707 251.381 189.683C245.14 194.103 232.486 199.108 227.16 199.996C223.028 200.683 219.965 199.801 217.784 199.121C216.566 198.74 214.723 198.274 213.407 198.451C213.047 198.502 212.702 198.63 212.397 198.828C210.059 200.331 218.666 203.57 218.666 203.57C219.326 205.377 210.788 206.233 205.837 206.577C205.553 206.597 205.282 206.702 205.06 206.881C204.838 207.059 204.676 207.301 204.596 207.574C204.516 207.847 204.521 208.138 204.612 208.408C204.702 208.678 204.873 208.914 205.101 209.084C207.589 210.94 211.513 213.135 215.557 212.516C220.681 211.723 222.336 208.909 224.207 208.226C225.569 207.726 253.564 206.297 262.021 201.112C274.794 193.28 279.745 179.013 279.745 179.013L264.183 171.712Z" fill="white"/>
<path d="M214.127 213.026C210.529 213.026 207.166 211.122 204.864 209.404C204.569 209.185 204.348 208.882 204.231 208.533C204.114 208.185 204.107 207.81 204.21 207.457C204.313 207.105 204.522 206.793 204.808 206.562C205.094 206.332 205.443 206.195 205.81 206.17C216.453 205.434 218.031 204.215 218.261 203.859V203.848C216.726 203.255 211.766 201.213 211.589 199.537C211.558 199.248 211.635 198.83 212.172 198.484C212.527 198.254 212.928 198.105 213.347 198.046C214.709 197.861 216.573 198.318 217.898 198.731C219.766 199.314 222.895 200.29 227.086 199.594C232.567 198.683 245.215 193.552 251.14 189.352C256.6 185.484 263.745 171.673 263.815 171.528C263.863 171.434 263.945 171.363 264.044 171.329C264.143 171.294 264.252 171.3 264.347 171.343L279.916 178.651C280.006 178.693 280.078 178.768 280.116 178.86C280.155 178.952 280.158 179.055 280.126 179.15C280.076 179.293 274.972 193.633 262.231 201.451C255.594 205.522 237.408 207.272 228.669 208.113C226.49 208.323 224.607 208.505 224.344 208.599C223.791 208.802 223.212 209.246 222.545 209.758C221.115 210.863 219.159 212.362 215.618 212.91C215.124 212.987 214.626 213.026 214.127 213.026ZM214.039 198.812C213.846 198.81 213.653 198.823 213.462 198.848C213.16 198.891 212.871 198.999 212.616 199.165C212.386 199.313 212.397 199.414 212.401 199.452C212.491 200.303 215.796 202.055 218.807 203.187C218.862 203.208 218.911 203.24 218.952 203.281C218.993 203.322 219.025 203.372 219.045 203.427C219.099 203.57 219.117 203.724 219.099 203.876C219.081 204.028 219.026 204.173 218.94 204.299C218.143 205.53 213.744 206.43 205.872 206.977C205.671 206.991 205.478 207.066 205.321 207.193C205.163 207.319 205.049 207.491 204.992 207.685C204.935 207.879 204.94 208.086 205.004 208.277C205.069 208.469 205.191 208.636 205.353 208.756C207.849 210.618 211.637 212.713 215.507 212.113C218.842 211.596 220.629 210.222 222.065 209.119C222.785 208.566 223.405 208.087 224.079 207.841C224.419 207.717 225.713 207.588 228.604 207.31C237.284 206.474 255.341 204.732 261.82 200.764C273.231 193.766 278.396 181.428 279.248 179.218L264.367 172.233C263.195 174.467 256.821 186.322 251.62 190.004C245.452 194.375 232.847 199.449 227.231 200.382C222.851 201.119 219.608 200.099 217.661 199.493C216.604 199.173 215.185 198.812 214.039 198.812Z" fill="#9CA4AB"/>
<path d="M262.107 128.336L261.665 114.306L250.046 116.985L250.282 127.817C250.295 128.846 248.349 130.426 247.004 131.393C246.844 131.509 246.714 131.661 246.624 131.837C246.534 132.013 246.487 132.208 246.487 132.406C246.487 132.604 246.534 132.799 246.624 132.975C246.714 133.151 246.844 133.303 247.004 133.419C251.237 136.376 260.153 134.839 268.186 132.237C268.181 132.244 262.159 129.46 262.107 128.336Z" fill="white"/>
<path d="M253.659 135.441C250.961 135.441 248.506 134.981 246.767 133.758C246.553 133.609 246.378 133.411 246.257 133.18C246.137 132.949 246.074 132.692 246.074 132.432C246.073 132.165 246.135 131.902 246.256 131.665C246.377 131.427 246.552 131.221 246.768 131.065C249.665 128.981 249.881 128.056 249.877 127.823L249.641 116.994C249.64 116.901 249.67 116.81 249.728 116.737C249.785 116.664 249.865 116.612 249.956 116.591L261.575 113.912C261.634 113.898 261.694 113.898 261.752 113.911C261.811 113.924 261.866 113.949 261.913 113.986C261.96 114.023 261.998 114.069 262.025 114.123C262.052 114.176 262.067 114.235 262.069 114.295L262.51 128.312C262.632 128.891 265.624 130.62 268.35 131.878C268.424 131.911 268.486 131.967 268.528 132.037C268.57 132.107 268.59 132.188 268.585 132.269C268.58 132.35 268.551 132.428 268.5 132.493C268.45 132.557 268.382 132.604 268.304 132.629C264.472 133.879 258.64 135.441 253.659 135.441ZM250.455 117.306L250.683 127.802C250.696 128.747 249.537 130.062 247.238 131.717C247.126 131.797 247.035 131.903 246.973 132.025C246.911 132.148 246.88 132.284 246.882 132.421C246.882 132.552 246.913 132.681 246.973 132.798C247.033 132.914 247.121 133.014 247.228 133.089C251.657 136.189 261.176 133.992 267.075 132.169C264.973 131.15 261.75 129.419 261.7 128.353L261.275 114.816L250.455 117.306Z" fill="#9CA4AB"/>
<path d="M241.602 97.3763C244.595 96.6839 241.313 100.441 251.942 95.2659C256.175 93.2053 254.786 98.7777 255.886 98.2474C259.935 96.2843 261.06 95.7908 263.232 95.9804C264.671 96.1057 268.041 98.3284 267.894 100.266C267.413 106.584 264.452 105.442 263.499 111.046C262.831 114.981 261.977 116.293 260.576 117.09C259.175 117.887 257.71 116.066 256.098 116.83C254.013 117.821 255.073 121.532 253.205 123.46C252.025 124.679 248.971 125.67 243.562 124.099C243.135 123.974 242.765 123.703 242.517 123.332C242.27 122.962 242.161 122.516 242.209 122.073C242.331 120.902 242.491 119.421 242.762 118.022C244.061 111.344 246.06 109.541 244.97 108.055C243.314 105.777 238.836 108.015 237.715 106.103C236.561 104.133 237.507 98.3247 241.602 97.3763Z" fill="#9CA4AB"/>
<path d="M248.602 125.329C247.236 125.329 245.539 125.104 243.448 124.495C242.931 124.344 242.483 124.016 242.183 123.568C241.883 123.12 241.75 122.582 241.806 122.046C241.935 120.799 242.097 119.353 242.359 117.959C242.793 115.721 243.416 113.523 244.223 111.39C244.852 109.652 245.092 108.921 244.646 108.308C243.91 107.291 242.408 107.33 240.965 107.367C239.522 107.404 238.032 107.442 237.374 106.323C236.622 105.034 236.701 102.557 237.558 100.553C238.376 98.6489 239.778 97.382 241.505 96.9823L241.595 97.3764L241.505 96.9823C242.563 96.7374 242.994 96.9823 243.448 97.3193C244 97.7355 244.762 98.3082 251.758 94.9032C252.879 94.3508 253.748 94.2587 254.412 94.5994C255.349 95.0819 255.553 96.2826 255.7 97.1591C255.733 97.381 255.777 97.6011 255.833 97.8184C259.843 95.8811 261.012 95.382 263.258 95.5773C264.931 95.7227 268.455 98.1001 268.288 100.295C268.023 103.794 266.999 105.12 266 106.409C265.135 107.534 264.316 108.597 263.889 111.114C263.258 114.832 262.44 116.488 260.76 117.442C259.897 117.933 259.034 117.626 258.273 117.363C257.576 117.116 256.917 116.884 256.249 117.197C255.329 117.63 255.145 118.766 254.907 120.081C254.69 121.329 254.441 122.745 253.473 123.747C253.046 124.211 251.648 125.329 248.602 125.329ZM241.792 106.545C243.133 106.545 244.497 106.709 245.316 107.834C246.032 108.82 245.644 109.891 245 111.669C244.205 113.761 243.589 115.917 243.159 118.114C242.894 119.475 242.736 120.9 242.607 122.13C242.571 122.478 242.657 122.827 242.852 123.117C243.046 123.408 243.336 123.621 243.671 123.72C248.692 125.18 251.736 124.401 252.91 123.185C253.705 122.36 253.922 121.13 254.13 119.941C254.377 118.534 254.631 117.077 255.921 116.466C256.882 116.011 257.762 116.322 258.551 116.598C259.236 116.84 259.829 117.048 260.372 116.738C261.597 116.04 262.435 114.875 263.097 110.98C263.558 108.264 264.478 107.07 265.367 105.916C266.329 104.665 267.24 103.483 267.487 100.234C267.61 98.6231 264.516 96.498 263.193 96.3838C261.13 96.1997 260.097 96.6582 256.057 98.6102C255.968 98.6587 255.867 98.6849 255.765 98.6868C255.663 98.6888 255.562 98.6663 255.47 98.6213C255.102 98.4371 255.021 97.9547 254.918 97.2954C254.791 96.5477 254.633 95.6159 254.055 95.3194C253.637 95.1058 252.989 95.2089 252.124 95.6307C244.687 99.2511 243.814 98.5974 242.975 97.9657C242.675 97.7392 242.476 97.5974 241.7 97.7705C239.817 98.207 238.819 99.6968 238.313 100.872C237.468 102.837 237.531 104.978 238.079 105.914C238.495 106.621 239.688 106.59 240.952 106.558C241.221 106.551 241.503 106.544 241.784 106.544L241.792 106.545Z" fill="white"/>
<path d="M253.941 106.374L253.345 108.133C253.064 108.962 252.84 109.809 252.675 110.669C252.367 112.28 251.729 115.026 251.386 116.574C250.293 121.547 243.708 117.42 243.708 117.42L243.093 116.201L242.27 116.016C242.11 115.984 241.961 115.911 241.838 115.803C241.696 115.674 241.599 115.503 241.561 115.315C241.523 115.128 241.546 114.933 241.626 114.759C242.495 112.86 244.263 108.632 244.556 105.056C246.105 104.466 247.777 104.278 249.418 104.509C251.058 104.739 252.614 105.381 253.941 106.374Z" fill="white"/>
<path d="M248.473 119.432C246.189 119.432 243.625 117.843 243.503 117.762C243.441 117.723 243.391 117.667 243.358 117.602L242.832 116.56L242.197 116.42C241.966 116.371 241.753 116.264 241.576 116.108C241.372 115.921 241.232 115.674 241.177 115.402C241.122 115.131 241.155 114.848 241.271 114.597C242.044 112.91 243.873 108.599 244.166 105.03C244.172 104.958 244.198 104.889 244.239 104.83C244.281 104.771 244.338 104.724 244.403 104.695C246.014 104.067 247.759 103.862 249.471 104.099C251.184 104.336 252.807 105.007 254.187 106.048C254.257 106.099 254.309 106.17 254.335 106.252C254.361 106.334 254.36 106.422 254.333 106.503L253.737 108.264C253.461 109.074 253.242 109.903 253.081 110.744C252.857 111.919 252.452 113.716 252.128 115.164C252.003 115.716 251.887 116.237 251.793 116.665C251.517 117.922 250.887 118.766 249.923 119.169C249.462 119.353 248.969 119.442 248.473 119.432ZM244.013 117.132C244.591 117.475 247.694 119.221 249.597 118.421C250.315 118.121 250.77 117.488 250.991 116.488C251.084 116.062 251.2 115.545 251.325 114.985C251.649 113.545 252.062 111.753 252.275 110.591C252.443 109.717 252.671 108.856 252.958 108.013L253.457 106.54C252.23 105.686 250.819 105.134 249.338 104.929C247.858 104.724 246.35 104.871 244.937 105.359C244.587 108.858 242.951 112.851 241.992 114.935C241.948 115.032 241.936 115.14 241.957 115.244C241.979 115.347 242.032 115.442 242.11 115.514C242.182 115.573 242.267 115.614 242.359 115.631L243.181 115.816C243.24 115.826 243.295 115.85 243.344 115.884C243.392 115.919 243.432 115.964 243.461 116.016L244.013 117.132Z" fill="#9CA4AB"/>
<path d="M253.656 112.208C253.656 112.208 255.084 107.973 256.86 109.03C258.636 110.087 256.948 114.704 253.656 112.208Z" fill="white"/>
<path d="M9.97005 303.061L7.72095 316.837L14.8732 317.59L17.6303 304.648L9.97005 303.061Z" fill="white"/>
<path d="M14.8695 317.994H14.8253L7.67492 317.242C7.6202 317.236 7.56726 317.219 7.51921 317.192C7.47116 317.166 7.42898 317.129 7.39516 317.086C7.36159 317.042 7.3374 316.992 7.3241 316.938C7.3108 316.885 7.30867 316.829 7.31786 316.775L9.5688 302.998C9.57718 302.944 9.59653 302.893 9.62566 302.847C9.6548 302.801 9.69308 302.762 9.73813 302.731C9.78295 302.7 9.83362 302.678 9.88707 302.667C9.94053 302.656 9.99566 302.656 10.0492 302.667L17.7075 304.254C17.8124 304.276 17.9042 304.339 17.9629 304.429C18.0215 304.519 18.0422 304.628 18.0204 304.733L15.2597 317.677C15.2401 317.766 15.1908 317.846 15.1199 317.904C15.049 317.961 14.9607 317.993 14.8695 317.994ZM8.18474 316.48L14.5492 317.15L17.1499 304.958L10.3013 303.54L8.18474 316.48Z" fill="#9CA4AB"/>
<path d="M15.6057 314.603C14.4712 315.076 13.2197 315.192 12.0177 314.936C10.8157 314.68 9.72011 314.063 8.87678 313.169L7.96757 312.206C7.89395 312.129 7.80401 312.069 7.70439 312.032C7.60477 311.995 7.49801 311.98 7.392 311.989C7.28599 311.999 7.18344 312.032 7.09192 312.086C7.00041 312.14 6.92226 312.215 6.86326 312.303L1.91781 319.787C1.48707 320.408 1.28794 321.16 1.35522 321.912C1.42251 322.664 1.75194 323.369 2.28591 323.903C4.17116 325.71 6.27313 327.275 8.54365 328.564C13.513 331.317 17.864 337.263 22.8996 335.746C27.9353 334.229 27.6758 333.997 28.2279 332.389C28.7801 330.781 26.3193 327.529 22.2462 323.903C19.756 321.693 17.3045 316.859 16.5241 314.979C16.4503 314.809 16.3129 314.674 16.1413 314.604C15.9697 314.534 15.7775 314.534 15.6057 314.603Z" fill="white"/>
<path d="M21.2929 336.396C18.3168 336.396 15.5542 334.221 12.8689 332.107C11.4093 330.958 9.90013 329.77 8.35778 328.918C6.05657 327.611 3.92513 326.026 2.0117 324.198C0.773037 323.025 0.585301 320.94 1.5939 319.55L6.52831 312.081C6.62076 311.94 6.74382 311.822 6.88826 311.736C7.03271 311.65 7.19478 311.598 7.36231 311.583C7.52985 311.568 7.6985 311.592 7.85561 311.652C8.01272 311.712 8.1542 311.807 8.26944 311.929L9.17865 312.893C9.96801 313.723 10.9901 314.296 12.1106 314.534C13.2311 314.773 14.3976 314.667 15.4566 314.23C15.5916 314.172 15.7367 314.142 15.8834 314.141C16.0302 314.139 16.1757 314.168 16.3114 314.224C16.4471 314.28 16.5703 314.362 16.6739 314.466C16.7774 314.57 16.8591 314.694 16.9143 314.83C17.7278 316.784 20.1683 321.502 22.5334 323.607C25.1543 325.94 29.4298 330.201 28.6292 332.527C28.5905 332.637 28.5555 332.742 28.5224 332.842C28.0273 334.354 27.7586 334.722 23.034 336.138C22.4694 336.309 21.8828 336.396 21.2929 336.396ZM7.45961 312.388H7.432C7.38568 312.392 7.34088 312.407 7.30101 312.43C7.26114 312.454 7.22726 312.487 7.20194 312.526L2.25833 320.01C1.87856 320.551 1.70138 321.208 1.75793 321.867C1.81448 322.525 2.10114 323.142 2.56753 323.61C4.43133 325.393 6.50776 326.94 8.74981 328.214C10.3492 329.098 11.8787 330.306 13.3677 331.476C16.5481 333.978 19.5536 336.341 22.8021 335.367C27.2874 334.024 27.3666 333.777 27.7549 332.593C27.7881 332.49 27.8249 332.383 27.8635 332.267C28.2316 331.221 26.8715 328.557 21.996 324.214C19.3291 321.839 16.8333 316.741 16.1689 315.143C16.1532 315.106 16.1304 315.072 16.1018 315.044C16.0731 315.016 16.0392 314.994 16.0019 314.979C15.9646 314.964 15.9248 314.956 15.8846 314.956C15.8444 314.957 15.8047 314.965 15.7677 314.981C14.5566 315.48 13.2229 315.601 11.9418 315.328C10.6607 315.055 9.49215 314.4 8.58969 313.451L7.68231 312.487C7.65408 312.456 7.61971 312.432 7.58138 312.414C7.54304 312.397 7.50158 312.388 7.45961 312.388Z" fill="#9CA4AB"/>
<path d="M14.4812 322.85C14.3871 322.85 14.2958 322.817 14.2231 322.758C14.1504 322.698 14.1007 322.615 14.0826 322.522C14.0645 322.43 14.0792 322.334 14.124 322.251C14.1689 322.169 14.2411 322.104 14.3284 322.069L19.0162 320.165C19.1139 320.132 19.2205 320.137 19.3142 320.181C19.4078 320.224 19.4816 320.301 19.5203 320.396C19.559 320.492 19.5599 320.599 19.5226 320.695C19.4854 320.791 19.4129 320.87 19.3199 320.914L14.6321 322.82C14.5841 322.84 14.5329 322.85 14.4812 322.85Z" fill="#9CA4AB"/>
<path d="M16.3069 325.713C16.2136 325.713 16.1234 325.68 16.0516 325.62C15.9798 325.56 15.9308 325.478 15.9129 325.386C15.8949 325.295 15.9091 325.2 15.9531 325.117C15.997 325.035 16.0681 324.97 16.1541 324.934L21.1235 322.909C21.1732 322.886 21.227 322.873 21.2817 322.872C21.3364 322.87 21.3908 322.88 21.4417 322.9C21.4926 322.92 21.5389 322.95 21.5778 322.988C21.6168 323.027 21.6475 323.073 21.6681 323.123C21.6888 323.174 21.699 323.229 21.6981 323.283C21.6972 323.338 21.6852 323.392 21.6628 323.442C21.6405 323.492 21.6082 323.537 21.5681 323.574C21.5279 323.611 21.4806 323.64 21.429 323.658L16.4597 325.684C16.4111 325.703 16.3592 325.713 16.3069 325.713Z" fill="#9CA4AB"/>
<path d="M28.0973 332.764C28.0973 332.764 25.5205 336.383 19.8923 333.33C16.1395 331.304 1.94175 319.675 1.94175 319.675L0.767508 321.314C0.480288 321.717 0.35459 322.213 0.415245 322.704C0.475901 323.196 0.7185 323.646 1.09512 323.967C4.6197 326.98 14.0781 334.751 19.5002 336.208C26.2807 338.031 28.0973 332.764 28.0973 332.764Z" fill="white"/>
<path d="M22.1745 337C21.2379 336.991 20.3066 336.858 19.4045 336.606C13.9382 335.133 4.59578 327.5 0.833779 324.282C0.382134 323.894 0.0913214 323.352 0.0181478 322.761C-0.0550258 322.169 0.0946972 321.572 0.438071 321.086L1.61416 319.447C1.64588 319.401 1.68664 319.363 1.73385 319.335C1.78106 319.306 1.83369 319.288 1.88839 319.281C1.94324 319.274 1.999 319.278 2.05219 319.293C2.10539 319.308 2.15488 319.334 2.1976 319.369C2.33932 319.485 16.4082 330.989 20.0837 332.982C25.3402 335.833 27.7421 332.571 27.7678 332.538C27.8234 332.457 27.9068 332.399 28.0022 332.375C28.0976 332.351 28.1985 332.362 28.2859 332.408C28.3732 332.453 28.441 332.529 28.4765 332.621C28.5119 332.712 28.5125 332.814 28.4783 332.906C28.4617 332.949 26.9948 337 22.1745 337ZM2.01907 320.268L1.09881 321.557C0.873112 321.879 0.775054 322.273 0.823697 322.663C0.872341 323.053 1.06421 323.411 1.36201 323.667C5.08352 326.85 14.31 334.402 19.6162 335.821C23.3267 336.818 25.4469 335.621 26.5807 334.418C25.1469 335.085 22.8684 335.405 19.7027 333.682C16.2333 331.814 4.23504 322.073 2.01907 320.268Z" fill="#9CA4AB"/>
<path d="M48.6815 305.397L45.4091 324.426L53.3214 328.255L57.5307 307.547L48.6815 305.397Z" fill="white"/>
<path d="M53.3214 328.66C53.2577 328.661 53.1946 328.647 53.1374 328.619L45.2232 324.791C45.144 324.753 45.0794 324.69 45.0392 324.612C44.999 324.534 44.9854 324.445 45.0005 324.358L48.2821 305.326C48.2916 305.271 48.3122 305.219 48.3426 305.173C48.373 305.127 48.4125 305.087 48.4587 305.057C48.5049 305.027 48.5568 305.006 48.6113 304.997C48.6658 304.987 48.7216 304.989 48.7754 305.002L57.6264 307.149C57.7281 307.174 57.8162 307.237 57.8721 307.326C57.928 307.415 57.9475 307.521 57.9264 307.624L53.7171 328.345C53.7051 328.405 53.6793 328.462 53.6416 328.511C53.6039 328.56 53.5555 328.6 53.5 328.627C53.4437 328.651 53.3827 328.662 53.3214 328.66ZM45.86 324.194L53.038 327.665L57.0669 307.847L49.0146 305.893L45.86 324.194Z" fill="#9CA4AB"/>
<path d="M44.2127 323.13C43.9569 324.951 43.5446 328.326 43.5096 331.354C43.5023 332.27 43.8311 333.158 44.4339 333.848C45.0366 334.539 45.8714 334.984 46.7802 335.1C52.0772 335.783 64.0921 336.53 74.3272 335.597C75.0284 335.532 76.2671 335.019 76.6112 333.258C77.7708 327.347 67.5504 325.892 56.3472 321.61C56.1322 321.528 55.8982 321.508 55.6726 321.554C55.4469 321.6 55.2391 321.71 55.0736 321.87L53.8662 323.049C53.2761 323.624 52.5289 324.012 51.7187 324.162C50.9086 324.313 50.072 324.22 49.3146 323.896L45.6336 322.319C45.4879 322.258 45.33 322.231 45.1722 322.24C45.0143 322.25 44.8608 322.296 44.7235 322.374C44.5861 322.452 44.4686 322.561 44.38 322.692C44.2915 322.823 44.2342 322.973 44.2127 323.13Z" fill="white"/>
<path d="M63.6633 336.448C56.7816 336.448 50.3637 335.974 46.7306 335.507C45.7231 335.379 44.7976 334.885 44.1296 334.12C43.4616 333.354 43.0976 332.37 43.1066 331.354C43.1416 328.28 43.5649 324.852 43.8134 323.08C43.8435 322.86 43.9243 322.649 44.0495 322.466C44.1747 322.282 44.3409 322.13 44.5348 322.021C44.7261 321.912 44.9401 321.849 45.1599 321.837C45.3797 321.825 45.5993 321.865 45.8011 321.953L49.4821 323.529C50.1656 323.824 50.9211 323.908 51.6526 323.772C52.3842 323.635 53.0586 323.284 53.5902 322.763L54.7994 321.587C55.0202 321.373 55.2973 321.227 55.5982 321.165C55.899 321.104 56.2112 321.129 56.4982 321.238C59.1135 322.238 61.6277 323.069 64.059 323.872C71.8315 326.439 77.9714 328.465 77.0162 333.341C76.6591 335.162 75.3597 335.919 74.3714 336.006C70.8873 336.317 67.2136 336.448 63.6633 336.448ZM45.2379 322.636C45.1307 322.636 45.0253 322.664 44.9324 322.717C44.8471 322.765 44.7741 322.832 44.7191 322.913C44.6642 322.994 44.6288 323.086 44.6158 323.183C44.3692 324.934 43.9514 328.327 43.9183 331.354C43.9109 332.172 44.204 332.964 44.7418 333.58C45.2795 334.195 46.0246 334.592 46.8355 334.695C52.311 335.402 64.1363 336.118 74.2941 335.19C74.5536 335.166 75.8695 334.958 76.2192 333.177C77.0383 329.001 71.4854 327.168 63.8013 324.631C61.3608 323.826 58.8319 322.992 56.2055 321.984C56.0626 321.929 55.9069 321.916 55.7569 321.947C55.6069 321.978 55.4688 322.051 55.3589 322.157L54.1515 323.334C53.5056 323.967 52.6861 324.393 51.7972 324.559C50.9084 324.725 49.9904 324.622 49.1601 324.264L45.479 322.686C45.4026 322.654 45.3207 322.637 45.2379 322.636Z" fill="#9CA4AB"/>
<path d="M43.517 330.897C43.517 330.897 43.517 331.205 43.517 331.354C43.5097 332.271 43.8385 333.158 44.4413 333.848C45.044 334.539 45.8788 334.984 46.7876 335.1C52.0846 335.783 64.0995 336.53 74.3345 335.597C75.0358 335.532 76.2744 335.019 76.6186 333.258C76.6821 332.757 76.6962 332.25 76.6609 331.746L75.9247 331.781C65.5832 332.298 55.2175 332.052 44.9121 331.045L43.517 330.897Z" fill="white"/>
<path d="M63.6633 336.448C56.7816 336.448 50.3637 335.974 46.7306 335.507C45.7231 335.378 44.7976 334.885 44.1296 334.12C43.4616 333.354 43.0976 332.37 43.1066 331.354C43.1066 331.205 43.1158 330.895 43.1158 330.895C43.117 330.84 43.1295 330.785 43.1526 330.734C43.1757 330.683 43.2089 330.638 43.2502 330.601C43.2919 330.563 43.341 330.535 43.3943 330.518C43.4475 330.501 43.5038 330.495 43.5594 330.501L44.9545 330.638C55.2404 331.641 65.5862 331.888 75.9082 331.374L76.6444 331.339C76.7493 331.332 76.8527 331.367 76.9321 331.436C77.0114 331.505 77.0602 331.603 77.0677 331.707C77.1051 332.247 77.0891 332.788 77.0199 333.324C76.6628 335.146 75.3634 335.902 74.375 335.989C70.8873 336.317 67.2136 336.448 63.6633 336.448ZM43.9146 331.348V331.363C43.9073 332.181 44.2003 332.973 44.7381 333.589C45.2759 334.204 46.0209 334.601 46.8318 334.704C52.3073 335.411 64.1326 336.127 74.2904 335.199C74.5499 335.175 75.8659 334.967 76.2156 333.186C76.263 332.851 76.2796 332.513 76.2653 332.175L75.9468 332.192C65.5833 332.701 55.1964 332.449 44.8698 331.437L43.9146 331.348Z" fill="#9CA4AB"/>
<path d="M58.9166 328.398C58.837 328.398 58.7594 328.374 58.6933 328.33C58.6272 328.285 58.5756 328.222 58.5449 328.149C58.5143 328.075 58.506 327.995 58.521 327.916C58.5361 327.838 58.5738 327.766 58.6295 327.709L62.5608 323.752C62.5982 323.714 62.6425 323.684 62.6914 323.664C62.7403 323.644 62.7927 323.633 62.8457 323.633C62.8987 323.633 62.9512 323.643 63.0002 323.663C63.0492 323.683 63.0938 323.713 63.1314 323.75C63.169 323.787 63.1988 323.832 63.2193 323.881C63.2397 323.93 63.2503 323.982 63.2505 324.035C63.2506 324.088 63.2404 324.141 63.2203 324.19C63.2001 324.239 63.1706 324.283 63.1332 324.321L59.2019 328.278C59.1646 328.316 59.1201 328.346 59.0712 328.367C59.0222 328.387 58.9697 328.398 58.9166 328.398Z" fill="#9CA4AB"/>
<path d="M62.778 328.809C62.699 328.809 62.6219 328.785 62.5561 328.741C62.4903 328.698 62.4387 328.636 62.4076 328.563C62.3765 328.491 62.3673 328.411 62.3811 328.333C62.3949 328.255 62.4311 328.183 62.4853 328.126L65.6271 324.846C65.661 324.799 65.7044 324.761 65.7544 324.732C65.8045 324.704 65.86 324.687 65.9172 324.681C65.9745 324.676 66.0322 324.683 66.0866 324.702C66.1409 324.721 66.1906 324.751 66.2324 324.791C66.2742 324.83 66.307 324.878 66.3288 324.931C66.3506 324.985 66.3608 325.042 66.3587 325.099C66.3566 325.157 66.3424 325.213 66.3168 325.265C66.2913 325.316 66.255 325.362 66.2105 325.398L63.0706 328.682C63.0329 328.722 62.9875 328.753 62.9372 328.775C62.887 328.797 62.8328 328.809 62.778 328.809Z" fill="#9CA4AB"/>
<path d="M36.836 196.16C37.0734 197.206 35.1537 205.268 35.7445 211.658C36.6906 221.88 35.0617 227.254 30.223 238.786C25.5352 249.971 14.3596 260.669 7.46877 305.173C7.38925 305.697 7.42389 306.233 7.57033 306.743C7.71677 307.252 7.97155 307.725 8.31725 308.127C8.66295 308.529 9.09139 308.852 9.57328 309.073C10.0552 309.294 10.5791 309.409 11.1093 309.408H16.8149C17.5021 309.408 18.1756 309.216 18.7592 308.853C19.3427 308.489 19.813 307.97 20.1168 307.353C23.7794 299.934 35.0967 277.979 39.5286 269.744C44.7336 260.07 59.6068 235.845 60.3503 224.311C61.0516 213.446 60.1 197.917 59.9822 196.175C59.9778 196.13 59.9578 196.09 59.9257 196.059C59.8936 196.029 59.8516 196.011 59.8074 196.009L36.836 196.16Z" fill="#9CA4AB"/>
<path d="M68.8462 193.186C68.8462 193.186 82.6887 221.138 75.0101 255.098C69.4572 279.659 61.4841 307.055 58.9111 314.867C58.6652 315.612 58.1918 316.262 57.5576 316.725C56.9234 317.187 56.1602 317.439 55.3755 317.445L49.1435 317.491C48.613 317.495 48.0877 317.387 47.6021 317.173C47.1165 316.96 46.6817 316.645 46.3263 316.251C45.971 315.857 45.7033 315.392 45.5407 314.887C45.3782 314.381 45.3245 313.847 45.3834 313.32C46.8318 300.37 51.2601 258.455 50.7779 248.338C49.9828 231.665 45.6797 224.851 44.6858 213.117C43.6036 200.34 46.3938 193.696 46.3938 193.696L68.8462 193.186Z" fill="#9CA4AB"/>
<path d="M73.0996 212.868C65.7375 212.868 63.621 206.34 63.6007 206.272C63.569 206.169 63.5792 206.059 63.6291 205.964C63.6789 205.869 63.7644 205.798 63.8667 205.766C63.9689 205.734 64.0796 205.745 64.1744 205.795C64.2691 205.844 64.3402 205.93 64.3719 206.032C64.4547 206.292 66.4664 212.411 73.7088 212.043C73.8132 212.042 73.914 212.081 73.9901 212.153C74.0661 212.224 74.1117 212.323 74.1171 212.427C74.1226 212.531 74.0876 212.634 74.0194 212.713C73.9512 212.792 73.8551 212.842 73.7511 212.851C73.529 212.863 73.3119 212.868 73.0996 212.868Z" fill="white"/>
<path d="M50.3914 252.199H50.3601C50.2537 252.189 50.1555 252.138 50.0867 252.057C50.0178 251.975 49.9838 251.869 49.992 251.763C50.7576 242.113 48.56 234.452 46.4361 227.038C44.6747 220.89 43.0091 215.081 43.0164 208.402C43.0127 208.347 43.0204 208.291 43.039 208.239C43.0576 208.187 43.0867 208.139 43.1246 208.098C43.1625 208.058 43.2083 208.025 43.2592 208.003C43.3101 207.981 43.3649 207.97 43.4204 207.97C43.4759 207.97 43.5308 207.981 43.5817 208.003C43.6325 208.025 43.6783 208.058 43.7162 208.098C43.7541 208.139 43.7833 208.187 43.8019 208.239C43.8205 208.291 43.8281 208.347 43.8244 208.402C43.8244 214.967 45.468 220.722 47.2146 226.817C49.357 234.298 51.5748 242.034 50.7981 251.829C50.7897 251.931 50.7431 252.026 50.6676 252.094C50.5921 252.163 50.4934 252.201 50.3914 252.199Z" fill="white"/>
<path d="M61.7308 71.8584C62.2132 71.004 62.5328 70.0673 62.6731 69.0961L64.5633 58.7448C64.6237 58.378 64.539 58.002 64.3272 57.6966C64.1153 57.3911 63.793 57.1802 63.4284 57.1084C63.0639 57.0366 62.6857 57.1096 62.374 57.3119C62.0622 57.5142 61.8414 57.83 61.7584 58.1924L60.9173 62.1793C60.8963 62.3635 60.824 62.538 60.7085 62.683C60.593 62.8279 60.4391 62.9374 60.2643 62.9989C60.0896 63.0604 59.901 63.0714 59.7203 63.0307C59.5395 62.9899 59.3739 62.8991 59.2424 62.7686C57.4019 60.9068 56.9602 55.3712 56.9602 55.3712C56.9602 55.3712 57.0172 53.2387 56.3988 52.5923L56.2368 52.4247C55.5871 51.7599 54.4166 52.073 54.1092 52.9937L51.2067 61.9344C50.8253 63.0538 50.8474 64.2714 51.2693 65.3762L53.2313 70.2212C53.6196 71.4072 51.9264 75.8379 49.6588 80.9169C43.5438 94.5393 40.4664 109.33 40.6403 124.263C40.7931 135.513 41.1078 146.499 41.7447 147.098C43.1287 148.402 55.4933 136.071 56.927 134.824C57.0853 134.686 55.2927 116.961 56.0178 101.089C56.5921 88.5426 59.7209 77.081 59.8093 76.9355L61.7308 71.8584Z" fill="white"/>
<path d="M42.0042 147.584C41.812 147.593 41.6237 147.527 41.4796 147.4C41.1778 147.116 40.5502 146.523 40.2483 124.272C40.0459 109.291 43.0882 94.6546 49.2871 80.7511C52.784 72.9246 53.0233 70.8731 52.8503 70.3464L50.8993 65.5253C50.4426 64.3318 50.4166 63.0161 50.8257 61.8054L53.73 52.8666C53.824 52.5798 53.9907 52.3222 54.214 52.1192C54.4372 51.9162 54.7093 51.7746 55.0037 51.7083C55.2735 51.6422 55.5559 51.6471 55.8233 51.7226C56.0907 51.7982 56.334 51.9417 56.5295 52.1392L56.6914 52.3068C57.3853 53.0361 57.3853 54.9255 57.3669 55.3601C57.4 55.7284 57.8712 60.8036 59.5332 62.4849C59.6078 62.5632 59.7037 62.6178 59.8091 62.6421C59.9144 62.6663 60.0246 62.659 60.1258 62.6212C60.2305 62.5857 60.3228 62.5209 60.3917 62.4343C60.4605 62.3478 60.5031 62.2433 60.5142 62.1332L61.3608 58.1095C61.4885 57.6666 61.7775 57.2877 62.1707 57.0477C62.564 56.8077 63.0329 56.7239 63.4849 56.813C63.9368 56.902 64.339 57.1574 64.6119 57.5287C64.8848 57.9 65.0087 58.3602 64.959 58.8185L63.0651 69.1715C62.9183 70.1742 62.5896 71.1415 62.0952 72.0259L60.2013 77.0809C60.202 77.0864 60.202 77.092 60.2013 77.0975C60.1185 77.3719 57.0227 88.4431 56.443 101.111C55.8908 113.265 56.8111 126.462 57.2013 132.095C57.4019 134.968 57.4019 134.968 57.2123 135.131C56.9693 135.343 56.3914 135.894 55.5908 136.656C47.3932 144.457 43.5428 147.584 42.0042 147.584ZM42.0465 146.809C42.2084 146.829 43.1747 146.717 47.5459 142.941C50.2386 140.621 53.2349 137.767 55.0258 136.061C55.7196 135.402 56.246 134.899 56.546 134.629C56.5368 134.277 56.4687 133.316 56.3877 132.143C55.992 126.495 55.0681 113.267 55.6276 101.065C56.1871 88.863 59.1062 77.7954 59.4503 76.7918L61.359 71.711C61.3648 71.6944 61.3722 71.6784 61.3811 71.6631C61.8404 70.8484 62.145 69.9555 62.2792 69.0297L64.1749 58.6675C64.2245 58.4018 64.1671 58.1272 64.0155 57.9036C63.8638 57.6799 63.6301 57.5252 63.365 57.473C63.1 57.4209 62.825 57.4755 62.6 57.625C62.375 57.7745 62.218 58.0069 62.1633 58.2715L61.3222 62.2566C61.2864 62.5125 61.1801 62.7535 61.0151 62.9523C60.8501 63.1512 60.633 63.3001 60.3881 63.3823C60.1433 63.4645 59.8803 63.4769 59.6289 63.4179C59.3774 63.3589 59.1473 63.231 58.9645 63.0485C57.0411 61.102 56.5847 55.6308 56.5718 55.3987C56.5709 55.384 56.5709 55.3693 56.5718 55.3545C56.5939 54.5387 56.4687 53.2276 56.1246 52.8648L55.9644 52.7009C55.8659 52.602 55.7432 52.5307 55.6085 52.4942C55.4738 52.4577 55.3319 52.4572 55.1969 52.4928C55.0385 52.5283 54.8919 52.6043 54.7716 52.7134C54.6513 52.8225 54.5613 52.9609 54.5104 53.1152L51.5932 62.0596C51.243 63.0904 51.2632 64.2112 51.6503 65.2288L53.6104 70.0702C53.8589 70.8271 53.7484 72.7607 50.0325 81.0807C43.8741 94.8719 40.8538 109.398 41.0563 124.257C41.3121 143.087 41.8219 146.328 42.0465 146.809Z" fill="#9CA4AB"/>
<path d="M68.0603 170.038L54.9374 138.986C54.6742 121.585 56.8203 110.142 56.8203 110.142L40.6367 108.433L38.5385 113.07C32.8458 125.592 31.0292 137.949 33.744 152.687C34.309 156.659 35.6213 160.635 36.1366 165.975C37.5004 180.358 35.1262 200.263 35.1262 200.263L73.9904 202.565C74.8444 189.335 69.148 178.698 68.0603 170.038Z" fill="white"/>
<path d="M73.9848 202.962H73.9591L35.0949 200.66C35.0405 200.656 34.9876 200.641 34.9393 200.616C34.891 200.591 34.8484 200.556 34.8139 200.514C34.7795 200.472 34.754 200.423 34.739 200.371C34.724 200.318 34.7199 200.263 34.7268 200.209C34.7488 200.01 37.0808 180.183 35.7353 166.008C35.4353 162.846 34.8611 160.213 34.3053 157.666C33.9372 155.965 33.5819 154.351 33.3519 152.738C30.7052 138.374 32.1942 126.075 38.1796 112.897L40.2685 108.265C40.3029 108.187 40.3613 108.123 40.4351 108.08C40.5089 108.038 40.5944 108.02 40.679 108.03L56.8552 109.74C56.9105 109.746 56.964 109.764 57.0124 109.791C57.0608 109.819 57.1029 109.856 57.1363 109.901C57.1696 109.945 57.1934 109.996 57.2061 110.05C57.2189 110.105 57.2204 110.161 57.2104 110.216C57.1883 110.33 55.081 121.791 55.3331 138.901L68.4283 169.881C68.4429 169.915 68.4528 169.951 68.4578 169.988C68.8406 173.036 69.8179 176.391 70.8505 179.943C72.7683 186.529 74.9401 193.992 74.3824 202.583C74.3755 202.685 74.3309 202.78 74.2573 202.85C74.1837 202.92 74.0865 202.96 73.9848 202.962ZM35.5679 199.878L73.6039 202.13C74.0621 193.843 71.9474 186.587 70.0793 180.168C69.0412 176.606 68.0547 173.24 67.6664 170.144L54.5656 139.144C54.5452 139.096 54.5346 139.045 54.5343 138.993C54.3006 123.615 55.9699 112.749 56.3472 110.499L40.8869 108.866L38.9029 113.23C32.9893 126.248 31.5187 138.391 34.1378 152.606C34.366 154.21 34.7139 155.804 35.082 157.493C35.6176 159.942 36.2231 162.719 36.5268 165.931C37.7746 179.03 35.8992 196.902 35.5679 199.878Z" fill="#9CA4AB"/>
<path d="M35.9985 155.917L48.3005 157.955L52.8061 165.69C56.8166 172.57 60.3117 179.746 63.0688 187.217C65.2479 193.11 68.5701 198.819 72.2879 203.585L54.1441 205.375L35.9985 203.448C38.151 189.939 38.6221 176.214 37.401 162.589C37.2792 161.261 37.0477 159.946 36.709 158.657L35.9985 155.917Z" fill="#9CA4AB"/>
<path d="M69.8364 193.729C79.6923 199.451 104.134 204.358 104.762 205.39C107.355 209.656 116.357 211.979 121.788 211.734C122.034 211.728 122.27 211.641 122.461 211.486C122.651 211.331 122.785 211.117 122.84 210.878C122.895 210.639 122.869 210.388 122.766 210.165C122.663 209.942 122.489 209.76 122.271 209.647C120.614 208.726 118.393 207.163 115.925 204.561C115.9 204.535 115.884 204.501 115.88 204.465C115.876 204.43 115.883 204.393 115.9 204.362C115.918 204.33 115.945 204.305 115.978 204.291C116.011 204.276 116.048 204.272 116.083 204.279C117.026 204.474 117.988 204.554 118.95 204.517C120.34 204.415 121.477 203.78 120.219 203.207C115.702 201.182 112.987 200.743 111.594 200.701C110.385 200.672 109.186 200.486 108.025 200.149C103.518 198.804 96.1538 195.526 90.0028 192.63C83.1138 189.385 78.4187 183.343 74.7413 176.671C70.4401 168.87 69.1756 161.055 69.1756 161.055L53.2055 166.714C53.2055 166.714 56.9289 186.232 69.8364 193.729Z" fill="white"/>
<path d="M121.01 212.144C115.51 212.144 107.022 209.809 104.445 205.625C103.987 205.292 100.617 204.389 97.0502 203.436C88.72 201.207 76.1328 197.839 69.6413 194.07C56.7227 186.571 52.854 166.971 52.8172 166.774C52.7985 166.68 52.8146 166.581 52.8626 166.497C52.9106 166.413 52.9873 166.35 53.0785 166.318L69.0486 160.659C69.1044 160.639 69.1639 160.632 69.2227 160.638C69.2816 160.644 69.3385 160.662 69.3893 160.692C69.4402 160.723 69.4839 160.764 69.5172 160.812C69.5506 160.861 69.5728 160.917 69.5824 160.975C69.5953 161.053 70.8891 168.815 75.1039 176.461C79.5211 184.464 84.3065 189.48 90.1832 192.25C95.8317 194.909 103.532 198.369 108.15 199.745C109.277 200.074 110.441 200.256 111.614 200.287C113.142 200.333 115.906 200.811 120.393 202.83C121.13 203.157 121.214 203.566 121.166 203.835C121.045 204.52 119.917 204.842 118.989 204.911C118.232 204.949 117.473 204.908 116.725 204.787C118.61 206.695 120.542 208.207 122.477 209.284C122.767 209.443 122.997 209.693 123.132 209.995C123.267 210.297 123.299 210.634 123.224 210.957C123.15 211.279 122.971 211.568 122.717 211.779C122.463 211.991 122.146 212.113 121.816 212.128C121.549 212.144 121.284 212.144 121.01 212.144ZM70.0388 193.361C76.4383 197.077 88.9629 200.426 97.2508 202.646C103.374 204.283 104.834 204.712 105.106 205.161C107.637 209.323 116.517 211.546 121.77 211.31C121.924 211.307 122.073 211.253 122.192 211.155C122.311 211.057 122.393 210.921 122.425 210.77C122.464 210.618 122.45 210.458 122.387 210.314C122.323 210.171 122.213 210.053 122.074 209.98C119.898 208.769 117.73 207.034 115.632 204.824C115.548 204.736 115.494 204.623 115.479 204.502C115.463 204.381 115.486 204.258 115.545 204.151C115.604 204.044 115.695 203.959 115.806 203.907C115.916 203.856 116.041 203.841 116.16 203.865C117.068 204.053 117.995 204.131 118.921 204.097C119.642 204.043 120.15 203.844 120.318 203.712C120.236 203.651 120.147 203.6 120.053 203.561C115.685 201.596 113.035 201.132 111.587 201.088C110.343 201.056 109.11 200.863 107.917 200.513C103.251 199.123 95.5096 195.646 89.8354 192.974C83.7966 190.129 78.8898 185.004 74.3935 176.844C70.7124 170.165 69.2235 163.401 68.8719 161.572L53.6822 166.955C54.2564 169.585 58.3681 186.6 70.0388 193.375V193.361Z" fill="#9CA4AB"/>
<path d="M50.3784 135.202C52.6741 134.651 55.057 134.568 57.3853 134.958C60.5786 135.526 63.5859 137.084 65.8166 140.037C70.0498 145.647 75.045 166.515 75.045 166.515L51.7551 174.452C51.7551 174.452 46.9698 165.452 44.0544 156.46L50.3784 135.202Z" fill="white"/>
<path d="M51.7552 174.857C51.6817 174.857 51.6096 174.837 51.5466 174.799C51.4837 174.761 51.4323 174.707 51.3981 174.642C51.3503 174.551 46.5557 165.508 43.668 156.595C43.648 156.543 43.6387 156.488 43.6408 156.433C43.6428 156.378 43.6561 156.324 43.6798 156.274C43.7035 156.224 43.7371 156.18 43.7785 156.143C43.82 156.107 43.8685 156.079 43.921 156.062C43.9735 156.045 44.0288 156.039 44.0838 156.045C44.1387 156.05 44.1919 156.066 44.2403 156.093C44.2886 156.119 44.331 156.155 44.3649 156.199C44.3988 156.243 44.4234 156.293 44.4373 156.346C47.014 164.283 51.0963 172.321 51.9503 173.966L74.5628 166.261C73.88 163.48 69.3247 145.369 65.4927 140.295C63.4829 137.632 60.7313 135.977 57.3135 135.371C57.2599 135.363 57.2083 135.345 57.162 135.316C57.1157 135.288 57.0754 135.251 57.0437 135.207C57.012 135.163 56.9895 135.113 56.9774 135.06C56.9653 135.007 56.964 134.953 56.9735 134.899C56.983 134.846 57.0031 134.795 57.0327 134.749C57.0622 134.704 57.1006 134.665 57.1455 134.634C57.1904 134.604 57.241 134.583 57.2942 134.573C57.3474 134.562 57.4022 134.562 57.4552 134.574C61.0295 135.207 64.0314 137.017 66.1369 139.807C70.3701 145.418 75.2327 165.578 75.437 166.434C75.4598 166.532 75.4456 166.635 75.397 166.723C75.3484 166.811 75.2689 166.878 75.1738 166.911L51.884 174.848C51.8418 174.858 51.7983 174.861 51.7552 174.857Z" fill="#9CA4AB"/>
<path d="M53.1521 134.113C53.1521 134.113 30.0684 133.73 43.09 159.859L37.4617 161.045C37.4617 161.045 30.869 142.251 36.4274 135.002C41.8845 127.883 51.1386 130.583 51.1386 130.583L53.1521 134.113Z" fill="#9CA4AB"/>
<path d="M69.2253 144.116C69.2253 144.116 45.6244 135.853 47.2938 165.001L41.9434 162.038C41.9434 162.038 42.2029 144.1 51.4239 140.185C61.1933 136.034 67.0682 139.093 67.0682 139.093L69.2253 144.116Z" fill="#9CA4AB"/>
<path d="M57.3963 134.818L56.281 129.008C56.2669 128.749 56.3347 128.492 56.4748 128.273C56.6148 128.054 56.82 127.885 57.0613 127.789L60.7792 126.369C61.0103 126.278 61.2053 126.114 61.3345 125.901C61.4638 125.689 61.5202 125.44 61.4951 125.193L61.035 120.561L62.4633 119.21C62.517 119.159 62.5489 119.089 62.5523 119.015C62.5558 118.941 62.5304 118.869 62.4817 118.814L60.0503 116.073C59.2497 115.035 58.3939 112.51 57.7773 112.709C57.7773 112.709 44.4465 111.659 44.0379 118.337C43.9909 119.306 44.2947 120.259 44.8937 121.022L46.1287 122.627C47.3941 124.231 48.0333 126.241 47.9269 128.281C47.8974 128.703 47.4428 131.436 47.1392 133.242C46.9652 134.266 46.4281 135.193 45.6263 135.853C44.6177 136.686 43.3919 137.741 43.6017 137.8C44.7459 138.711 46.0316 139.429 47.4079 139.925C51.5895 141.466 56.8571 141.002 60.5822 138.555C60.5786 138.555 57.4074 135.956 57.3963 134.818Z" fill="white"/>
<path d="M52.5411 141.21C50.7427 141.22 48.9566 140.913 47.2643 140.304C45.8425 139.796 44.5142 139.056 43.333 138.115C43.2568 138.052 43.2031 137.966 43.1802 137.87C43.1213 137.596 43.0864 137.43 45.3668 135.551C46.094 134.953 46.5808 134.112 46.738 133.183C47.2146 130.36 47.5018 128.567 47.522 128.263C47.6237 126.32 47.0138 124.408 45.8067 122.884L44.5717 121.278C43.9118 120.438 43.5784 119.387 43.633 118.32C43.6692 117.661 43.841 117.016 44.1377 116.426C44.4345 115.836 44.8497 115.313 45.3576 114.891C48.9374 111.777 56.8828 112.249 57.7424 112.313C58.3976 112.193 58.8872 113.133 59.4909 114.311C59.7416 114.844 60.0352 115.355 60.3688 115.84L62.7817 118.558C62.9013 118.692 62.9639 118.867 62.956 119.046C62.948 119.225 62.8703 119.395 62.7394 119.517L61.451 120.731L61.8909 125.165C61.9242 125.5 61.8476 125.837 61.6726 126.125C61.4977 126.413 61.2338 126.636 60.9209 126.76L57.2013 128.171C57.0433 128.234 56.9085 128.344 56.815 128.486C56.7215 128.628 56.6739 128.796 56.6785 128.966L57.7829 134.745C57.7847 134.769 57.7847 134.794 57.7829 134.819C57.7829 135.404 59.362 137.054 60.816 138.246C60.8656 138.286 60.9049 138.337 60.9309 138.395C60.9569 138.453 60.9688 138.516 60.9655 138.58C60.9623 138.644 60.9441 138.705 60.9123 138.761C60.8806 138.816 60.8362 138.863 60.7829 138.897C58.4896 140.415 55.508 141.21 52.5411 141.21ZM44.1281 137.712C45.1737 138.484 46.3239 139.104 47.5441 139.553C51.5012 141.012 56.3785 140.584 59.8939 138.513C58.9479 137.697 57.0522 135.934 56.9933 134.872L55.889 129.093C55.889 129.075 55.889 129.056 55.889 129.038C55.8696 128.693 55.9593 128.351 56.1454 128.061C56.3314 127.77 56.6043 127.546 56.9252 127.419L60.6467 125.999C60.7947 125.94 60.9193 125.833 61.0016 125.696C61.0839 125.56 61.1196 125.4 61.1031 125.241L60.6449 120.609C60.6386 120.548 60.6464 120.486 60.6678 120.427C60.6892 120.369 60.7235 120.317 60.7682 120.274L62.1136 119.003L59.7596 116.35C59.3873 115.82 59.061 115.259 58.7841 114.674C58.5135 114.145 58.0663 113.276 57.8381 113.116C57.8112 113.12 57.784 113.12 57.7571 113.116C57.6724 113.116 49.3496 112.495 45.9005 115.499C45.4723 115.849 45.1222 116.285 44.8727 116.779C44.6232 117.273 44.4799 117.814 44.452 118.366C44.4097 119.238 44.685 120.096 45.2269 120.781L46.4619 122.386C47.7878 124.068 48.4558 126.175 48.341 128.314C48.3116 128.741 47.8938 131.261 47.5478 133.314C47.3567 134.435 46.7687 135.449 45.8913 136.172C44.8293 137.032 44.349 137.48 44.1336 137.702L44.1281 137.712Z" fill="#9CA4AB"/>
<path d="M57.8546 102.573C54.8233 102.527 58.7601 105.488 47.4373 102.687C42.9299 101.573 45.4128 106.695 44.2385 106.409C39.9152 105.352 40.0642 105.383 38.0047 106.022C36.6409 106.446 35.8531 109.039 36.1973 110.936C36.6482 113.44 40.7507 118.425 43.9275 122.233C45.5637 124.195 49.103 124.259 49.5834 121.129C49.7159 120.263 47.268 118.506 48.2159 117.114C49.9588 114.556 51.2637 118.175 52.9073 117.048C54.4828 115.967 55.127 115.28 56.7724 113.67C58.7675 111.722 62.3381 114.514 63.3817 110.254C63.9283 108.024 62.0031 102.628 57.8546 102.573Z" fill="#9CA4AB"/>
<path d="M98.7526 30.8917C97.8592 30.8921 96.9858 30.6274 96.2428 30.131C95.4998 29.6347 94.9206 28.929 94.5785 28.1033C94.2363 27.2776 94.1466 26.3689 94.3207 25.4921C94.4948 24.6154 94.9248 23.81 95.5564 23.1778C96.188 22.5456 96.9927 22.115 97.8689 21.9405C98.7451 21.766 99.6533 21.8554 100.479 22.1973C101.304 22.5393 102.01 23.1185 102.506 23.8618C103.002 24.605 103.267 25.4788 103.267 26.3726C103.266 27.5706 102.79 28.7192 101.944 29.5664C101.098 30.4136 99.9499 30.8903 98.7526 30.8917ZM98.7526 22.6638C98.0195 22.6638 97.3028 22.8813 96.6932 23.2888C96.0836 23.6964 95.6085 24.2756 95.328 24.9533C95.0474 25.631 94.974 26.3767 95.117 27.0962C95.26 27.8156 95.6131 28.4765 96.1315 28.9952C96.6499 29.5139 97.3104 29.8671 98.0294 30.0102C98.7485 30.1533 99.4938 30.0799 100.171 29.7992C100.848 29.5184 101.427 29.0431 101.835 28.4332C102.242 27.8232 102.459 27.1062 102.459 26.3726C102.458 25.3894 102.067 24.4469 101.372 23.7517C100.677 23.0565 99.7352 22.6653 98.7526 22.6638Z" fill="#9CA4AB"/>
<path d="M138.112 8.13029C138.059 8.13026 138.006 8.11967 137.956 8.09913C137.907 8.07859 137.862 8.0485 137.825 8.0106L136.062 6.24825C135.989 6.17159 135.95 6.06972 135.951 5.96429C135.953 5.85885 135.995 5.75816 136.07 5.6836C136.144 5.60904 136.245 5.56649 136.35 5.56498C136.456 5.56348 136.557 5.60314 136.634 5.67554L138.397 7.43972C138.453 7.49637 138.492 7.56837 138.507 7.64669C138.523 7.72501 138.515 7.80615 138.484 7.87992C138.454 7.9537 138.402 8.01682 138.336 8.06136C138.27 8.10591 138.192 8.12989 138.112 8.13029Z" fill="#9CA4AB"/>
<path d="M144.283 14.3012C144.23 14.3011 144.178 14.2904 144.129 14.2699C144.08 14.2493 144.035 14.2193 143.998 14.1816L142.235 12.4192C142.167 12.342 142.13 12.2417 142.133 12.1388C142.137 12.0358 142.179 11.9379 142.251 11.865C142.324 11.792 142.422 11.7495 142.525 11.7461C142.628 11.7426 142.728 11.7785 142.805 11.8465L144.57 13.6107C144.627 13.6674 144.665 13.7396 144.68 13.8181C144.696 13.8966 144.688 13.9779 144.657 14.0517C144.626 14.1256 144.574 14.1887 144.508 14.2331C144.441 14.2775 144.363 14.3012 144.283 14.3012Z" fill="#9CA4AB"/>
<path d="M136.343 14.3014C136.263 14.3014 136.185 14.2777 136.119 14.2333C136.052 14.1889 136 14.1258 135.97 14.0519C135.939 13.9781 135.931 13.8968 135.946 13.8183C135.962 13.7398 136 13.6676 136.056 13.6109L137.819 11.8467C137.896 11.7743 137.998 11.7346 138.103 11.7361C138.208 11.7376 138.309 11.7802 138.384 11.8547C138.458 11.9293 138.501 12.03 138.502 12.1354C138.504 12.2409 138.464 12.3427 138.392 12.4194L136.629 14.1817C136.591 14.2195 136.547 14.2495 136.498 14.2701C136.449 14.2906 136.396 14.3013 136.343 14.3014Z" fill="#9CA4AB"/>
<path d="M142.52 8.13029C142.44 8.12989 142.362 8.10591 142.296 8.06136C142.23 8.01682 142.178 7.9537 142.148 7.87992C142.117 7.80615 142.109 7.72501 142.125 7.64669C142.14 7.56837 142.178 7.49637 142.235 7.43972L143.998 5.67554C144.075 5.60314 144.176 5.56348 144.282 5.56498C144.387 5.56649 144.488 5.60904 144.562 5.6836C144.637 5.75816 144.679 5.85885 144.681 5.96429C144.682 6.06972 144.643 6.17159 144.57 6.24825L142.805 8.0106C142.768 8.04836 142.723 8.07838 142.675 8.09892C142.626 8.11946 142.573 8.13012 142.52 8.13029Z" fill="#9CA4AB"/>
<path d="M21.8911 33.6172C21.7837 33.6172 21.6807 33.5745 21.6047 33.4985C21.5288 33.4225 21.4861 33.3195 21.4861 33.212V30.7186C21.4861 30.6112 21.5288 30.5081 21.6047 30.4321C21.6807 30.3562 21.7837 30.3135 21.8911 30.3135C21.9984 30.3135 22.1014 30.3562 22.1774 30.4321C22.2533 30.5081 22.296 30.6112 22.296 30.7186V33.212C22.296 33.3195 22.2533 33.4225 22.1774 33.4985C22.1014 33.5745 21.9984 33.6172 21.8911 33.6172Z" fill="#9CA4AB"/>
<path d="M21.8947 42.3553C21.8416 42.3555 21.789 42.3452 21.7399 42.3251C21.6908 42.3049 21.6461 42.2753 21.6085 42.2378C21.5709 42.2003 21.541 42.1558 21.5207 42.1067C21.5003 42.0577 21.4898 42.0051 21.4898 41.952V39.4493C21.4898 39.3419 21.5325 39.2388 21.6084 39.1628C21.6843 39.0869 21.7873 39.0442 21.8947 39.0442C22.0021 39.0442 22.1051 39.0869 22.181 39.1628C22.257 39.2388 22.2996 39.3419 22.2996 39.4493V41.9446C22.3006 41.9983 22.2908 42.0517 22.2709 42.1016C22.251 42.1515 22.2213 42.1969 22.1836 42.2352C22.1458 42.2735 22.1009 42.3038 22.0513 42.3244C22.0017 42.345 21.9484 42.3555 21.8947 42.3553Z" fill="#9CA4AB"/>
<path d="M18.7751 36.7331H16.283C16.2298 36.7331 16.1772 36.7226 16.1281 36.7022C16.0789 36.6819 16.0343 36.652 15.9967 36.6144C15.9591 36.5768 15.9293 36.5321 15.9089 36.483C15.8886 36.4338 15.8781 36.3811 15.8781 36.3279C15.8781 36.2747 15.8886 36.222 15.9089 36.1729C15.9293 36.1237 15.9591 36.0791 15.9967 36.0415C16.0343 36.0038 16.0789 35.974 16.1281 35.9536C16.1772 35.9333 16.2298 35.9228 16.283 35.9228H18.7751C18.8304 35.9191 18.8859 35.9267 18.9382 35.9454C18.9905 35.964 19.0383 35.9931 19.0789 36.031C19.1194 36.0689 19.1517 36.1148 19.1738 36.1657C19.1959 36.2166 19.2073 36.2715 19.2073 36.327C19.2073 36.3825 19.1959 36.4374 19.1738 36.4883C19.1517 36.5393 19.1194 36.5851 19.0789 36.623C19.0383 36.6609 18.9905 36.6901 18.9382 36.7087C18.8859 36.7273 18.8304 36.735 18.7751 36.7312V36.7331Z" fill="#9CA4AB"/>
<path d="M27.5009 36.7367H25.007C24.8996 36.7367 24.7966 36.694 24.7207 36.6181C24.6448 36.5421 24.6021 36.439 24.6021 36.3316C24.6021 36.2241 24.6448 36.1211 24.7207 36.0451C24.7966 35.9691 24.8996 35.9265 25.007 35.9265H27.5009C27.5563 35.9227 27.6118 35.9304 27.664 35.949C27.7163 35.9676 27.7642 35.9968 27.8047 36.0347C27.8452 36.0726 27.8775 36.1184 27.8996 36.1693C27.9217 36.2203 27.9331 36.2752 27.9331 36.3307C27.9331 36.3862 27.9217 36.4411 27.8996 36.492C27.8775 36.5429 27.8452 36.5887 27.8047 36.6266C27.7642 36.6645 27.7163 36.6937 27.664 36.7123C27.6118 36.7309 27.5563 36.7386 27.5009 36.7349V36.7367Z" fill="#9CA4AB"/>
<path d="M176.531 238.325C175.22 238.325 173.939 237.936 172.85 237.208C171.76 236.479 170.911 235.444 170.409 234.233C169.908 233.021 169.777 231.688 170.032 230.402C170.288 229.116 170.919 227.935 171.846 227.008C172.772 226.081 173.953 225.449 175.238 225.194C176.523 224.938 177.856 225.069 179.066 225.571C180.277 226.073 181.312 226.922 182.04 228.013C182.768 229.103 183.157 230.384 183.157 231.696C183.157 233.454 182.459 235.14 181.216 236.383C179.973 237.627 178.288 238.325 176.531 238.325ZM176.531 225.889C175.381 225.889 174.258 226.23 173.302 226.869C172.347 227.508 171.602 228.416 171.162 229.479C170.723 230.541 170.608 231.71 170.832 232.838C171.056 233.966 171.61 235.002 172.423 235.815C173.236 236.628 174.271 237.181 175.398 237.405C176.526 237.629 177.694 237.514 178.756 237.074C179.817 236.633 180.725 235.888 181.363 234.932C182.001 233.975 182.342 232.851 182.341 231.701C182.339 230.16 181.726 228.683 180.637 227.594C179.547 226.504 178.071 225.891 176.531 225.889Z" fill="#9CA4AB"/>
</g>
<defs>
<clipPath id="clip0_682_5210">
<rect width="336" height="337" fill="white"/>
</clipPath>
</defs>
</svg>
