<svg width="180" height="64" viewBox="0 0 180 64" fill="none" xmlns="http://www.w3.org/2000/svg">
<g clip-path="url(#clip0_682_5178)">
<path d="M0 10.5901C0.163052 10.5957 0.327936 10.6068 0.492819 10.6068H35.2467V12.1513H1.83387L1.79907 12.2369C2.1783 12.5812 2.58318 12.9013 2.92944 13.2753C3.31966 13.6996 3.75935 13.8224 4.32728 13.8205C8.86159 13.7963 13.3977 13.8075 17.932 13.8075H18.4487C18.2783 14.3192 18.1354 14.79 17.9558 15.2478C17.9302 15.3148 17.736 15.3408 17.6188 15.3408C16.2594 15.3464 14.9 15.3445 13.5388 15.3445H5.36605L5.33308 15.4357C5.89551 15.9419 6.45795 16.4555 7.03504 16.9449C7.12298 17.0193 7.30435 16.997 7.44176 16.997H17.3733C17.1864 17.4957 17.0343 17.9534 16.8365 18.3889C16.7962 18.4782 16.5836 18.5266 16.4517 18.5266C14.0738 18.534 11.6939 18.5322 9.31594 18.5322H8.90373L8.86525 18.6159C9.11991 18.8485 9.40387 19.0532 9.62189 19.3174C10.21 20.0301 10.9336 20.2535 11.846 20.1976C13.0954 20.1213 14.3522 20.179 15.6072 20.179H16.1165C15.86 20.7019 15.6456 21.1653 15.402 21.6137C15.3653 21.6844 15.1968 21.7012 15.0887 21.7012C14.3266 21.7086 13.5663 21.7049 12.8041 21.7049H12.4084C12.6301 22.1441 14.0481 23.3331 14.4053 23.3815C14.3541 23.4857 14.2973 23.5881 14.235 23.6867C13.5718 24.6209 12.9031 25.5494 12.2435 26.4854C12.0329 26.7794 11.8258 27.0381 11.399 26.906L11.7379 27.1255C11.1315 27.7806 10.5782 28.4728 9.92967 29.0515C8.3248 30.49 6.67596 31.8781 5.04544 33.2887C4.84942 33.458 4.65522 33.6292 4.46652 33.8078C4.08729 34.1688 4.04515 34.4163 4.28332 34.7606C4.55629 35.1495 5.0143 35.3058 5.38987 35.0993C5.6775 34.9392 5.94864 34.7531 6.2033 34.5447C7.69275 33.3389 8.988 31.9321 10.2026 30.4509C11.0106 29.4665 11.7745 28.4449 12.5935 27.3972C12.9452 27.5628 13.3299 27.7247 13.6982 27.922C16.6862 29.5186 19.3299 31.5823 21.6822 34.033C21.8343 34.1912 21.9424 34.3959 22.0578 34.5875C23.1222 36.3404 24.4065 37.8738 26.2477 38.8414C27.4257 39.4592 28.6843 39.7272 30.0052 39.7216C30.084 39.7216 30.1627 39.7067 30.3496 39.69C27.618 37.978 25.9545 35.4528 24.4669 32.8253C24.6941 32.8644 24.9213 32.9351 25.1503 32.9351C28.3728 32.9425 31.5954 32.9444 34.818 32.9407C35.1233 32.9407 35.276 33.0951 35.276 33.404V33.9027C35.2668 34.4852 35.3767 34.4666 34.7007 34.4666H26.55L26.5115 34.5466C26.6745 34.6992 26.8339 34.8574 27.0006 35.0062C27.4037 35.3672 27.7591 35.8622 28.2318 36.0464C28.7044 36.2307 29.2944 36.1041 29.8311 36.1041C31.5056 36.1041 33.182 36.1153 34.8583 36.0967C35.21 36.0967 35.3035 36.2065 35.2796 36.5396C35.254 36.8894 35.2741 37.2448 35.2741 37.6412H29.9722C30.1188 37.7993 30.1829 37.8831 30.2653 37.9538C30.7655 38.4004 31.2052 39.0033 31.7896 39.2378C32.3356 39.4592 33.0354 39.2955 33.6674 39.2973H35.243V40.8344H33.6033L33.5502 40.9293C34.0705 41.4019 34.5908 41.8765 35.1752 42.4087C34.9847 42.4235 34.8766 42.4384 34.7685 42.4384H0.283967C0.190532 42.4384 0.0952662 42.4291 0.00183204 42.4254V10.5901H0Z" fill="#E7372C"/>
<path d="M147.903 19.1351V10.6069H148.366C155.806 10.6069 163.248 10.659 170.688 10.5864C175.07 10.5436 178.128 13.4688 179.304 16.6937C179.747 17.907 179.976 19.1928 179.976 20.488C179.985 24.5465 180.027 28.6068 179.965 32.6653C179.912 36.1321 178.567 38.994 175.704 41.0131C174.343 41.9714 172.811 42.4403 171.146 42.4403C164.759 42.4403 158.373 42.4403 151.988 42.4366C149.416 42.431 147.227 40.5702 146.622 37.9036C146.499 37.3732 146.433 36.8299 146.424 36.2847C146.402 33.8283 146.378 31.3702 146.419 28.9139C146.455 26.6901 147.326 24.8665 149.198 23.616C150.059 23.041 151.026 22.788 152.058 22.788C157.285 22.7917 162.509 22.7917 167.736 22.788C168.192 22.788 168.2 22.788 168.192 22.3227C168.185 21.824 168.216 21.3235 168.138 20.8322C167.965 19.7529 167.207 19.137 166.128 19.137H147.901L147.903 19.1351ZM168.18 30.1774C168.068 30.1681 167.998 30.1569 167.929 30.1569H158.195C158.056 30.1569 157.917 30.1755 157.781 30.2146C156.924 30.4621 156.334 31.3925 156.445 32.3099C156.576 33.3687 157.301 34.0889 158.298 34.0926C161.143 34.1037 163.99 34.1037 166.835 34.0926C167.555 34.0926 168.11 33.6571 168.161 32.9351C168.227 32.0326 168.18 31.119 168.18 30.1774Z" fill="#E7372C"/>
<path d="M48.9613 19.1351V10.6069H49.4432C56.8996 10.6069 64.3487 10.6497 71.8014 10.5901C75.8594 10.5585 78.8768 13.1172 80.205 16.2806C80.7564 17.5944 81.0386 19.0067 81.0349 20.4359C81.0441 24.472 81.0697 28.5082 81.0294 32.5444C80.9946 35.9404 79.7525 38.7838 77.0099 40.8437C75.5846 41.9119 73.9669 42.4385 72.188 42.4385C65.8143 42.4385 59.4388 42.4385 53.0633 42.4348C50.4984 42.4292 48.3128 40.5962 47.6954 37.9464C47.5671 37.4049 47.4975 36.8504 47.4884 36.294C47.4664 33.8004 47.4279 31.3069 47.492 28.8171C47.5562 26.3868 48.5986 24.4869 50.7751 23.3239C51.5225 22.9238 52.3378 22.7824 53.1842 22.7842C58.389 22.7898 63.592 22.7898 68.7932 22.7842C69.2585 22.7842 69.2659 22.7842 69.2585 22.3265C69.2512 21.8408 69.2732 21.3495 69.2054 20.8713C69.0533 19.7808 68.2839 19.137 67.1957 19.1351H48.9613V19.1389V19.1351ZM69.253 30.183C69.1193 30.1718 69.0295 30.1588 68.9379 30.1588H59.2776C59.1255 30.1588 58.9753 30.1811 58.8287 30.222C57.9768 30.4751 57.4016 31.4037 57.5151 32.3304C57.6434 33.3799 58.378 34.0926 59.382 34.0963C62.2162 34.1056 65.0503 34.1056 67.8845 34.0963C68.6503 34.0963 69.1962 33.6311 69.242 32.8495C69.2933 31.9805 69.253 31.1022 69.253 30.1848V30.183Z" fill="#E7372C"/>
<path d="M144.132 0.0167476V8.24726C143.975 8.2547 143.828 8.26773 143.682 8.26773C141.807 8.27331 139.933 8.26773 138.054 8.28076C136.854 8.2882 135.921 9.21676 135.905 10.4021C135.905 10.4598 135.912 10.5156 135.919 10.6161H144.125V19.1295H136.055V42.4217H123.619V19.163H119.891V10.6124H123.549C123.619 9.93505 123.641 9.29305 123.76 8.66967C124.491 4.80842 126.514 1.97994 130.209 0.522897C131.169 0.145146 132.178 0.00744338 133.204 0.00558253C136.755 -0.00186084 140.305 -0.00186084 143.856 0.00558253C143.936 0.00372169 144.015 0.0111651 144.13 0.0186084L144.132 0.0167476Z" fill="#2F2F2F"/>
<path d="M96.4387 42.4235H84.1714V0.141357H96.4387V42.4235Z" fill="#2F2F2F"/>
<path d="M118.85 42.4496H118.387C114.684 42.4496 110.983 42.4515 107.281 42.4552C106.993 42.4552 106.821 42.3715 106.652 42.1258C104.141 38.4339 101.634 34.7383 99.0915 31.0668C98.0674 29.5893 97.4262 28.0039 97.3547 26.1914C97.3071 24.9781 97.4115 23.7891 98.0271 22.7135C98.7361 21.4742 99.4579 20.2386 100.215 19.0272C101.928 16.2936 103.661 13.5768 105.403 10.8581C105.482 10.7352 105.663 10.6068 105.799 10.6068C109.512 10.5938 113.226 10.5901 116.939 10.5975C116.963 10.5975 116.985 10.6031 117.068 10.6143C116.985 10.7446 116.919 10.8581 116.844 10.966C114.092 14.9649 111.339 18.9639 108.585 22.961C107.578 24.4199 107.394 25.9179 108.285 27.494C108.492 27.8792 108.719 28.2532 108.966 28.6124C112.18 33.11 115.399 37.604 118.619 42.096C118.685 42.1909 118.746 42.2859 118.852 42.444L118.85 42.4496Z" fill="#2F2F2F"/>
<path d="M35.2485 13.8262V15.3279H18.9616C18.8829 14.8385 18.8004 14.3453 18.7161 13.8262H35.2485Z" fill="#E7372C"/>
<path d="M35.2705 17.0268C35.2705 17.4771 35.2833 17.8902 35.2595 18.3014C35.2558 18.3833 35.1276 18.4726 35.0396 18.5303C34.9902 18.562 34.9041 18.5359 34.8326 18.5359C29.8806 18.5359 24.9286 18.5396 19.9748 18.5452C19.623 18.5452 19.5021 18.4373 19.4654 18.1005C19.4288 17.7506 19.3335 17.4082 19.2548 17.0249H35.2686L35.2705 17.0268Z" fill="#E7372C"/>
<path d="M18.0383 23.361L18.445 24.9055H15.9571L15.9205 24.993L16.6295 25.6442C16.6936 25.6963 16.7559 25.7503 16.8127 25.8099C17.3055 26.3997 17.9009 26.7031 18.685 26.5728C18.7748 26.5579 18.9543 26.6714 18.9836 26.7589C19.3885 28.0057 19.7732 29.2561 20.1616 30.5122C20.1671 30.568 20.1671 30.6239 20.1616 30.6816C17.7965 29.2226 15.3745 27.9777 12.7199 27.1366C13.0954 26.5523 13.4527 26.0015 13.8063 25.447C14.2002 24.8292 14.5794 24.204 14.9861 23.5917C15.0557 23.4838 15.2115 23.3722 15.3287 23.3684C16.2191 23.3535 17.1076 23.361 18.0383 23.361Z" fill="#E7372C"/>
<path d="M19.9161 20.1678H20.3302C25.1668 20.1678 30.0015 20.164 34.8381 20.1584C35.2082 20.1584 35.3071 20.272 35.2778 20.6218C35.2485 20.9623 35.2723 21.3047 35.2723 21.6806C35.1166 21.6918 34.9902 21.7085 34.8693 21.7085C30.1389 21.7085 25.4068 21.7123 20.6764 21.7178C20.3705 21.7178 20.2422 21.6173 20.1909 21.3252C20.125 20.9567 20.0187 20.5939 19.918 20.1678H19.9161Z" fill="#E7372C"/>
<path d="M20.7424 23.3795H35.2503V24.8775C35.1203 24.885 34.9957 24.898 34.8729 24.898C30.4321 24.898 25.9912 24.8999 21.5503 24.9036C21.2883 24.9036 21.1509 24.8496 21.0886 24.5668C21.0044 24.1797 20.867 23.802 20.7406 23.3777L20.7424 23.3795Z" fill="#E7372C"/>
<path d="M35.2485 26.5839V28.0819C35.1129 28.0875 34.9993 28.0986 34.8858 28.0986C30.8095 28.0986 26.735 28.1005 22.6587 28.1061C22.3931 28.1061 22.2575 28.0353 22.1787 27.7786C22.0578 27.3841 21.9039 27.0007 21.7518 26.582H35.2485V26.5839Z" fill="#E7372C"/>
<path d="M35.2467 29.7809V31.2994H34.8454C31.2473 31.2994 27.651 31.3012 24.0547 31.3049C23.7836 31.3049 23.6278 31.2398 23.5253 30.9719C23.3732 30.5792 23.1808 30.2015 22.9885 29.7791H35.2467V29.7809Z" fill="#E7372C"/>
<path d="M17.6334 21.6901H16.1183C16.3693 21.1914 16.5892 20.7262 16.8475 20.2815C16.8951 20.1996 17.093 20.1772 17.2194 20.1847C17.2835 20.1884 17.3733 20.3168 17.3916 20.3987C17.485 20.8155 17.551 21.2342 17.6334 21.6901Z" fill="#E7372C"/>
<path d="M49.3424 63.2649V60.3211C49.8682 60.7695 50.438 61.1045 51.0535 61.3278C51.6691 61.5511 52.292 61.6627 52.9185 61.6627C53.2868 61.6627 53.6074 61.6292 53.8822 61.5622C54.157 61.4952 54.386 61.4003 54.571 61.2812C54.7561 61.1622 54.8935 61.0207 54.9833 60.8588C55.073 60.6969 55.1188 60.5202 55.1188 60.3304C55.1188 60.0736 55.0455 59.8428 54.9008 59.64C54.7561 59.4372 54.5582 59.2511 54.3072 59.0799C54.0562 58.9087 53.7594 58.7431 53.415 58.583C53.0706 58.423 52.7005 58.2611 52.3011 58.0955C51.2862 57.6656 50.5314 57.1427 50.0331 56.5231C49.5348 55.9034 49.2856 55.1553 49.2856 54.2789C49.2856 53.5922 49.4212 53.0024 49.6941 52.5092C49.9653 52.0161 50.3354 51.6086 50.8044 51.2904C51.2715 50.9722 51.8138 50.7377 52.4294 50.587C53.045 50.4362 53.6972 50.3618 54.386 50.3618C55.0749 50.3618 55.6611 50.4028 56.1832 50.4865C56.7054 50.5684 57.1872 50.6968 57.6269 50.868V53.6183C57.4089 53.4657 57.1725 53.3299 56.9161 53.2126C56.6596 53.0954 56.3958 53.0005 56.1246 52.9223C55.8535 52.8442 55.5823 52.7884 55.3149 52.7511C55.0455 52.7139 54.7909 52.6953 54.5491 52.6953C54.2175 52.6953 53.9152 52.7269 53.644 52.7921C53.3729 52.8572 53.142 52.9465 52.9552 53.0638C52.7683 53.181 52.6236 53.3206 52.521 53.4824C52.4184 53.6443 52.3671 53.8286 52.3671 54.0295C52.3671 54.251 52.4239 54.4482 52.5393 54.6231C52.6547 54.7981 52.8178 54.9637 53.0285 55.12C53.2392 55.2763 53.4956 55.4308 53.7979 55.5796C54.1002 55.7285 54.441 55.8848 54.822 56.0448C55.3405 56.2663 55.8077 56.5007 56.2217 56.7482C56.6358 56.9957 56.9893 57.2767 57.2861 57.5893C57.5829 57.902 57.8083 58.2592 57.9658 58.6612C58.1234 59.0631 58.2022 59.5302 58.2022 60.0643C58.2022 60.7993 58.0647 61.4189 57.7899 61.9177C57.5151 62.4164 57.1432 62.822 56.6724 63.1309C56.2016 63.4417 55.6538 63.6631 55.0291 63.7971C54.4043 63.9329 53.7448 63.9999 53.0504 63.9999C52.3561 63.9999 51.6599 63.9385 51.0169 63.8157C50.3738 63.6929 49.8169 63.5087 49.3461 63.263L49.3424 63.2649Z" fill="#E7372C"/>
<path d="M90.0376 63.7712H87.4104V55.8793C87.4104 55.0271 87.447 54.0855 87.5185 53.0546H87.4452C87.4031 53.2518 87.3554 53.4472 87.3005 53.6426C87.2455 53.8398 87.1924 54.0241 87.1374 54.199C87.0825 54.3739 87.0293 54.5302 86.978 54.6679C86.9268 54.8056 86.8828 54.9173 86.8461 55.0029L84.382 59.8132H82.3357L79.954 54.9843C79.9302 54.9284 79.8972 54.841 79.8551 54.7219C79.8129 54.6028 79.7671 54.4576 79.7195 54.2902C79.6719 54.1208 79.6206 53.9329 79.5693 53.7245C79.518 53.5161 79.474 53.2928 79.4374 53.0527H79.3549C79.3971 53.6296 79.4282 54.1599 79.4447 54.6437C79.463 55.1275 79.4722 55.5351 79.4722 55.8663V63.7674H76.8377V50.5759H80.4248L82.7167 55.1573C82.7827 55.3043 82.8486 55.4606 82.9164 55.6263C82.9824 55.7919 83.0483 55.9575 83.1106 56.1231C83.1747 56.2887 83.2315 56.4488 83.2828 56.6051C83.3341 56.7614 83.3726 56.9065 83.3964 57.0424H83.4422C83.4788 56.9065 83.5173 56.7558 83.5595 56.5865C83.6016 56.4171 83.6474 56.2478 83.695 56.0766C83.7427 55.9054 83.794 55.7379 83.8489 55.576C83.9039 55.4141 83.9607 55.2671 84.0211 55.1387L86.3753 50.5759H90.0339V63.7674L90.0376 63.7712Z" fill="#E7372C"/>
<path d="M120.935 63.7711H117.747L116.824 60.8366H112.205L111.291 63.7711H108.122L112.848 50.5796H116.316L120.935 63.7711ZM116.153 58.5552L114.759 54.1208C114.657 53.7895 114.583 53.395 114.541 52.9336H114.468C114.439 53.3206 114.362 53.7021 114.241 54.0836L112.828 58.5533H116.151L116.153 58.5552Z" fill="#E7372C"/>
<path d="M149.958 63.7711H146.598L144.579 60.3769C144.429 60.1201 144.282 59.8894 144.145 59.6866C144.006 59.4837 143.865 59.3107 143.724 59.1674C143.581 59.0241 143.434 58.9124 143.28 58.8362C143.126 58.7599 142.96 58.7208 142.778 58.7208H141.991V63.7711H139.065V50.5796H143.702C146.853 50.5796 148.428 51.7761 148.428 54.1673C148.428 54.6269 148.359 55.0512 148.22 55.442C148.08 55.8309 147.884 56.1826 147.631 56.4952C147.377 56.8078 147.071 57.0777 146.712 57.3047C146.353 57.5317 145.951 57.7103 145.512 57.8387V57.876C145.704 57.9374 145.893 58.036 146.072 58.1756C146.254 58.3133 146.428 58.4752 146.598 58.6575C146.767 58.8417 146.93 59.039 147.084 59.2511C147.238 59.4633 147.379 59.6698 147.505 59.8726L149.96 63.773L149.958 63.7711ZM141.989 52.807V56.4766H143.257C143.885 56.4766 144.389 56.2924 144.768 55.9239C145.155 55.5499 145.347 55.0866 145.347 54.5339C145.347 53.382 144.667 52.8052 143.31 52.8052H141.987L141.989 52.807Z" fill="#E7372C"/>
<path d="M176.426 52.9987H172.721V63.7693H169.786V52.9987H166.1V50.5796H176.424V52.9987H176.426Z" fill="#E7372C"/>
</g>
<defs>
<clipPath id="clip0_682_5178">
<rect width="180" height="64" fill="white"/>
</clipPath>
</defs>
</svg>
